<svg xmlns="http://www.w3.org/2000/svg" xmlns:xlink="http://www.w3.org/1999/xlink" viewBox="0 0 206.1 129.27"><defs><style>.cls-1{fill:none;}.cls-2{clip-path:url(#clip-path);}.cls-3{fill:#fff;}.cls-4{fill:#e2231a;}</style><clipPath id="clip-path"><rect class="cls-1" width="206.1" height="129.27"/></clipPath></defs><title>logo-helmn</title><g id="Capa_2" data-name="Capa 2"><g id="Capa_1-2" data-name="Capa 1"><g class="cls-2"><path class="cls-3" d="M202.49,65.38c0,33.82-44.82,61.23-100.12,61.23S2.26,99.2,2.26,65.38,47.08,4.15,102.37,4.15,202.49,31.56,202.49,65.38"/><path class="cls-4" d="M142.73,5a119.28,119.28,0,0,1,33.08,14q14.29,9,22.29,20.79a42.67,42.67,0,0,1,0,49.74q-8,11.83-22.29,20.79a119.93,119.93,0,0,1-33.08,14,153.71,153.71,0,0,1-39.65,5,154.08,154.08,0,0,1-39.68-5,119.84,119.84,0,0,1-33.12-14Q16,101.35,8,89.55A42.83,42.83,0,0,1,8,39.71Q16,27.92,30.28,19A121.19,121.19,0,0,1,63.4,5a153.07,153.07,0,0,1,39.68-5,153.7,153.7,0,0,1,39.65,5M66.17,11.6A114.16,114.16,0,0,0,35.36,24.19Q22.07,32.25,14.64,42.71T7.21,64.63q0,11.46,7.43,22t20.75,18.52a115.53,115.53,0,0,0,30.81,12.56,146.55,146.55,0,0,0,36.88,4.53,146.66,146.66,0,0,0,36.84-4.53,114.93,114.93,0,0,0,30.81-12.56q13.29-8,20.72-18.52t7.43-22q0-11.46-7.43-21.92T170.73,24.19A114.22,114.22,0,0,0,140,11.6a146.47,146.47,0,0,0-36.87-4.53A146.86,146.86,0,0,0,66.17,11.6M51.54,60.54v-12h9V79.88h-9V67.61H33V79.88H24V48.49h9v12Zm44.29,7.07H72.44v5.21H95.83v7.07H63.59V48.49H95.83v6.84H72.44v5.21H95.83ZM107.7,73H130v6.84h-31V48.49h8.63ZM182,49.86a3.24,3.24,0,0,1,1.3,2.5V79.88h-8.63V55.34H161.92V79.88h-8.48V55.34H140.72V79.88h-8.63V48.49h46.71A6.2,6.2,0,0,1,182,49.86"/></g></g></g></svg>