<svg xmlns="http://www.w3.org/2000/svg" viewBox="0 0 611.34 115.2"><defs><style>.cls-1{fill:#56b06f;}</style></defs><title>logo-crop-horizontal</title><g id="Capa_2" data-name="Capa 2"><g id="Capa_1-2" data-name="Capa 1"><path class="cls-1" d="M86.24,1.87C47-6.89,8.51,16,.28,52.82.19,53.22,0,54.24,0,54.24l3.81.85c7.5-31.87,45.52-51.22,80.24-43.46S144.47,53,137.74,85L142,86s.26-1,.35-1.41c8.22-36.79-16.86-73.93-56.09-82.69"/><path class="cls-1" d="M68,86.07c.35,7.84.43,12.63.44,15.61a1.87,1.87,0,0,0,2,1.3c1.33,0,1.45-.48,1.74-1.37-.34-3.73-.65-8.54-.85-14.82-.44-14,.62-13.63.62-13.63s-.89-2.64-2.21-2.06a2.52,2.52,0,0,0-1.35,3.11c.35,1.1-1.15-5.41-.38,11.87"/><path class="cls-1" d="M75.47,52C67.35,58.32,69.56,66.49,73,69.92c1-2.81,2.34-7.66,7-11.74,5.32-4.68,11.21-7,15.74-8.59,3.86-1.35,14-2.78,14-2.78a139,139,0,0,0-14.53,4c-5.43,1.91-11,6.18-13.6,8.16-4.84,3.71-6.29,8.92-7.67,11.61,5,2.76,10.29,3.9,18.83-4.4,10-9.68,7.85-12.47,20-20.25-16.44,0-30.08.53-37.32,6.12"/><path class="cls-1" d="M59.73,61.68c6.7,2,8.57,6.93,7.13,10-1.33-1.61-3.35-4.47-7.35-6a32,32,0,0,0-12.35-1.89,77.84,77.84,0,0,0-9.85,1.52,97,97,0,0,1,10.47-.83c4,0,8.69,1.42,10.85,2.11,4.05,1.28,6.24,4.34,7.78,5.78-2.26,2.2-6.16,1.13-12.83-.82-9.29-2.72-8.6-4.7-18.47-6.09,7.4-3.77,14-6.85,24.63-3.73"/><path class="cls-1" d="M44.36,115s1.34-4.89,5.94-5.76c2.88-.54,4.68-1.44,5.4-2.34a20.35,20.35,0,0,1,5.94-4.68,8.26,8.26,0,0,1,4.38-1c1.08.24,1.56,3.66,4.8,3.3a3.51,3.51,0,0,0,3.42-3.06s-.18-2,.9-1.44A18.47,18.47,0,0,0,80,101.9c2,.36,5.76,2.52,9,5.94s4.32,2.88,6.3,3.42,4.5,3.42,2.52,3.78-53.45,0-53.45,0"/><path class="cls-1" d="M68,86.07c.35,7.84.43,12.63.44,15.61a2.31,2.31,0,0,0,2,1.3"/><path class="cls-1" d="M231.63,69.75c-.13-1.08-.51-5.48-5.05-5.48-5,0-7,5.19-7,11.62,0,1.86,0,10.71,6.53,10.71,2.81,0,5.49-1.77,5.62-5.91h7A10.67,10.67,0,0,1,235.91,88a12.27,12.27,0,0,1-9.11,3.51c-10.76,0-14.26-8-14.26-15.7,0-9.89,5.53-16.46,14.3-16.46,6.83,0,11.62,4.15,11.62,10.36Z"/><path class="cls-1" d="M249.08,73.21h5.4a5.5,5.5,0,0,0,3.41-.86,4.32,4.32,0,0,0,1.73-3.63,3.9,3.9,0,0,0-1.64-3.5c-1-.74-2.29-.74-4.41-.74h-4.5v8.72Zm-6.61-13.65h12c3.45,0,7,0,9.46,2.12a7.89,7.89,0,0,1,2.73,6c0,5.84-5,7.22-6.52,7.65,4.7.43,5.05,3.11,5.61,7.17.47,3.67.73,5.19.95,6.05a5.59,5.59,0,0,0,1,2.24h-7.39c-.31-1.73-1.25-9.64-1.68-10.84-.61-1.78-2.25-1.78-3.37-1.78h-5.88V90.79h-6.82V59.56Z"/><path class="cls-1" d="M279.45,84.14c.95,1.3,2.55,2.51,5.66,2.51a6.35,6.35,0,0,0,5.83-2.9c1-1.56,2.12-4,2.12-8.94a18,18,0,0,0-.78-5.58c-1.3-3.84-3.94-5.53-7.13-5.53a7.13,7.13,0,0,0-5.75,2.63c-1.77,2.17-2.29,5.53-2.29,9.07,0,3,.47,6.31,2.33,8.73Zm5.66-25.22c3.33,0,7.91.78,11,4.23,3.33,3.81,4,8.69,4,11.75,0,4.54-1.38,9.38-3.93,12.23-3.46,3.88-8.51,4.45-11.11,4.45A15.12,15.12,0,0,1,274,87.3c-3.41-3.63-3.84-8.81-3.84-11.67,0-8.3,3.76-16.72,15-16.72Z"/><path class="cls-1" d="M311.32,73.69H314c2.16,0,6.18,0,6.18-4.76,0-4.24-3.58-4.24-5.48-4.24h-3.38v9Zm-6.61-14h9.64c4.49,0,8.25.3,10.84,3.41a8.9,8.9,0,0,1,1.9,5.83c0,3.62-1.51,6.7-4,8.3-2.29,1.47-5.44,1.47-7.09,1.47H311.5V90.79h-6.79V59.64Z"/><path class="cls-1" d="M349.72,73.69h2.68c2.16,0,6.18,0,6.18-4.76,0-4.24-3.59-4.24-5.49-4.24h-3.37v9Zm-6.61-14h9.64c4.49,0,8.25.3,10.84,3.41a8.89,8.89,0,0,1,1.9,5.83c0,3.62-1.51,6.7-4,8.3-2.29,1.47-5.44,1.47-7.08,1.47h-4.54V90.79h-6.78V59.64Z"/><path class="cls-1" d="M375.89,73.21h5.4a5.5,5.5,0,0,0,3.41-.86,4.32,4.32,0,0,0,1.73-3.63,3.9,3.9,0,0,0-1.64-3.5c-1-.74-2.29-.74-4.41-.74h-4.5v8.72Zm-6.61-13.65h12c3.45,0,7,0,9.46,2.12a7.89,7.89,0,0,1,2.73,6c0,5.84-5,7.22-6.52,7.65,4.71.43,5.05,3.11,5.62,7.17.47,3.67.73,5.19.95,6.05a5.56,5.56,0,0,0,1,2.24H387c-.31-1.73-1.25-9.64-1.68-10.84-.61-1.78-2.25-1.78-3.37-1.78h-5.88V90.79h-6.82V59.56Z"/><path class="cls-1" d="M406.26,84.14c.95,1.3,2.55,2.51,5.66,2.51a6.35,6.35,0,0,0,5.83-2.9c1-1.56,2.12-4,2.12-8.94a18,18,0,0,0-.78-5.58c-1.3-3.84-3.94-5.53-7.13-5.53a7.12,7.12,0,0,0-5.75,2.63c-1.77,2.17-2.29,5.53-2.29,9.07,0,3,.47,6.31,2.33,8.73Zm5.66-25.22c3.33,0,7.91.78,11,4.23,3.32,3.81,4,8.69,4,11.75,0,4.54-1.38,9.38-3.93,12.23-3.46,3.88-8.51,4.45-11.11,4.45a15.12,15.12,0,0,1-11.06-4.27c-3.41-3.63-3.84-8.81-3.84-11.67,0-8.3,3.76-16.72,15-16.72Z"/><polygon class="cls-1" points="436.92 64.75 427.63 64.75 427.63 59.56 452.95 59.56 452.95 64.75 443.66 64.75 443.66 90.79 436.92 90.79 436.92 64.75 436.92 64.75"/><polygon class="cls-1" points="456.61 59.56 477.53 59.56 477.53 64.66 463.32 64.66 463.32 72.08 476.62 72.08 476.62 77.19 463.32 77.19 463.32 85.61 478 85.61 478 90.79 456.61 90.79 456.61 59.56 456.61 59.56"/><path class="cls-1" d="M500.38,69.75c-.13-1.08-.52-5.48-5.06-5.48-5,0-7,5.19-7,11.62,0,1.86,0,10.71,6.52,10.71,2.81,0,5.49-1.77,5.62-5.91h7A10.69,10.69,0,0,1,504.65,88a12.27,12.27,0,0,1-9.12,3.51c-10.75,0-14.26-8-14.26-15.7,0-9.89,5.53-16.46,14.3-16.46,6.83,0,11.62,4.15,11.62,10.36Z"/><polygon class="cls-1" points="518.52 64.75 509.23 64.75 509.23 59.56 534.54 59.56 534.54 64.75 525.26 64.75 525.26 90.79 518.52 90.79 518.52 64.75 518.52 64.75"/><polygon class="cls-1" points="537.6 59.47 544.3 59.47 544.3 90.79 537.6 90.79 537.6 59.47 537.6 59.47"/><path class="cls-1" d="M558.17,84.14c1,1.3,2.55,2.51,5.66,2.51a6.35,6.35,0,0,0,5.83-2.9c1-1.56,2.12-4,2.12-8.94a18.07,18.07,0,0,0-.78-5.58c-1.29-3.84-3.93-5.53-7.13-5.53a7.13,7.13,0,0,0-5.75,2.63c-1.77,2.17-2.29,5.53-2.29,9.07,0,3,.48,6.31,2.33,8.73Zm5.66-25.22c3.33,0,7.9.78,11,4.23,3.33,3.81,4,8.69,4,11.75,0,4.54-1.39,9.38-3.94,12.23-3.45,3.88-8.51,4.45-11.1,4.45a15.12,15.12,0,0,1-11.06-4.27c-3.41-3.63-3.85-8.81-3.85-11.67,0-8.3,3.76-16.72,15-16.72Z"/><polygon class="cls-1" points="583.73 59.56 593.41 59.56 605.12 84.14 605.12 59.56 611.34 59.56 611.34 90.79 602.14 90.79 590.04 64.88 590.04 90.79 583.73 90.79 583.73 59.56 583.73 59.56"/></g></g></svg>