<svg xmlns="http://www.w3.org/2000/svg" xmlns:xlink="http://www.w3.org/1999/xlink" viewBox="0 0 120.41 108.69"><defs><style>.cls-1{fill:none;}.cls-2{clip-path:url(#clip-path);}.cls-3{fill:#56b06f;}</style><clipPath id="clip-path" transform="translate(0 0)"><rect class="cls-1" width="120.41" height="108.69"/></clipPath></defs><title>logo-crop-protection</title><g id="Capa_2" data-name="Capa 2"><g id="Capa_1-2" data-name="Capa 1"><g class="cls-2"><path class="cls-3" d="M70.94,1.38C42-5.08,13.62,11.82,7.56,38.95c-.07.3-.22,1-.21,1.05l2.81.63c5.53-23.5,33.57-37.77,59.17-32s44.55,30.49,39.59,54.12l3.12.7s.19-.74.26-1c6.06-27.13-12.44-54.52-41.36-61" transform="translate(0 0)"/></g><path class="cls-3" d="M57.51,63.47c.26,5.78.32,9.31.33,11.51a1.38,1.38,0,0,0,1.46,1c1,0,1.07-.35,1.28-1-.25-2.75-.48-6.3-.63-10.93-.33-10.35.46-10.05.46-10.05s-.66-1.94-1.63-1.52a1.86,1.86,0,0,0-1,2.29c.25.81-.85-4-.28,8.75" transform="translate(0 0)"/><path class="cls-3" d="M63,38.38C57,43,58.64,49,61.19,51.56c.75-2.07,1.72-5.65,5.14-8.66a33.91,33.91,0,0,1,11.61-6.33c2.85-1,10.35-2,10.35-2a102.49,102.49,0,0,0-10.72,3c-4,1.41-8.13,4.55-10,6C64,46.22,62.89,50.06,61.87,52c3.68,2,7.58,2.88,13.89-3.24,7.35-7.13,5.79-9.19,14.77-14.93-12.12,0-22.18.39-27.52,4.51" transform="translate(0 0)"/><path class="cls-3" d="M51.4,45.48c4.94,1.44,6.32,5.11,5.26,7.38a12.87,12.87,0,0,0-5.42-4.45A23.62,23.62,0,0,0,42.13,47a57.4,57.4,0,0,0-7.27,1.12,71.54,71.54,0,0,1,7.72-.61,28,28,0,0,1,8,1.56c3,.95,4.6,3.2,5.74,4.26-1.66,1.62-4.54.83-9.46-.6-6.85-2-6.35-3.46-13.62-4.49,5.45-2.78,10.31-5,18.17-2.75" transform="translate(0 0)"/><path class="cls-3" d="M40.06,84.83s1-3.61,4.38-4.25c2.12-.4,3.45-1.06,4-1.72a15,15,0,0,1,4.38-3.45A6.09,6.09,0,0,1,56,74.7c.8.18,1.15,2.7,3.54,2.43a2.59,2.59,0,0,0,2.52-2.25s-.13-1.46.66-1.06a13.62,13.62,0,0,0,3.58,1.33c1.46.26,4.25,1.86,6.64,4.38s3.18,2.13,4.65,2.52,3.32,2.52,1.86,2.79-39.42,0-39.42,0" transform="translate(0 0)"/><path class="cls-3" d="M57.51,63.47c.26,5.78.32,9.31.33,11.51a1.7,1.7,0,0,0,1.46,1" transform="translate(0 0)"/><path class="cls-3" d="M5.76,102.1c0-.33-.16-1.65-1.53-1.65S2.11,102,2.11,104c0,.56,0,3.23,2,3.23a1.66,1.66,0,0,0,1.7-1.79H7.9a3.22,3.22,0,0,1-.85,2.22,3.7,3.7,0,0,1-2.75,1.06c-3.25,0-4.3-2.4-4.3-4.74,0-3,1.67-5,4.32-5,2.06,0,3.51,1.25,3.51,3.13Z" transform="translate(0 0)"/><path class="cls-3" d="M11,103.15h1.63a1.66,1.66,0,0,0,1-.26,1.31,1.31,0,0,0,.52-1.1,1.18,1.18,0,0,0-.5-1.06,2.22,2.22,0,0,0-1.33-.22H11v2.63ZM9,99h3.61a4.13,4.13,0,0,1,2.86.64,2.38,2.38,0,0,1,.82,1.81,2.36,2.36,0,0,1-2,2.31c1.42.13,1.53.94,1.69,2.17s.22,1.57.29,1.83a1.69,1.69,0,0,0,.29.68H14.4c-.09-.52-.38-2.91-.51-3.27-.18-.54-.68-.54-1-.54H11.1v3.81H9V99Z" transform="translate(0 0)"/><path class="cls-3" d="M20.2,106.45a1.93,1.93,0,0,0,1.71.76,1.92,1.92,0,0,0,1.76-.87,4.55,4.55,0,0,0,.64-2.7,5.44,5.44,0,0,0-.23-1.68,2.18,2.18,0,0,0-2.15-1.67,2.15,2.15,0,0,0-1.73.79,4.39,4.39,0,0,0-.69,2.74,4.34,4.34,0,0,0,.7,2.64Zm1.71-7.62a4.37,4.37,0,0,1,3.31,1.28,5.43,5.43,0,0,1,1.2,3.55,5.79,5.79,0,0,1-1.19,3.69,4.49,4.49,0,0,1-3.35,1.34,4.56,4.56,0,0,1-3.34-1.29,5.18,5.18,0,0,1-1.16-3.52c0-2.51,1.13-5,4.53-5Z" transform="translate(0 0)"/><path class="cls-3" d="M29.82,103.29h.81c.65,0,1.87,0,1.87-1.44,0-1.28-1.08-1.28-1.66-1.28h-1v2.71Zm-2-4.24h2.91c1.36,0,2.49.09,3.27,1a2.69,2.69,0,0,1,.57,1.76,2.92,2.92,0,0,1-1.2,2.51,4.07,4.07,0,0,1-2.14.44H29.88v3.67h-2V99.05Z" transform="translate(0 0)"/><path class="cls-3" d="M41.42,103.29h.81c.65,0,1.87,0,1.87-1.44,0-1.28-1.08-1.28-1.66-1.28h-1v2.71Zm-2-4.24h2.91c1.36,0,2.49.09,3.27,1a2.68,2.68,0,0,1,.57,1.76,2.91,2.91,0,0,1-1.2,2.51,4.06,4.06,0,0,1-2.14.44H41.47v3.67h-2V99.05Z" transform="translate(0 0)"/><path class="cls-3" d="M49.32,103.15H51a1.66,1.66,0,0,0,1-.26,1.31,1.31,0,0,0,.52-1.1,1.18,1.18,0,0,0-.5-1.06,2.22,2.22,0,0,0-1.33-.22H49.32v2.63Zm-2-4.12h3.61a4.13,4.13,0,0,1,2.86.64,2.38,2.38,0,0,1,.82,1.81,2.36,2.36,0,0,1-2,2.31c1.42.13,1.53.94,1.7,2.17s.22,1.57.29,1.83a1.68,1.68,0,0,0,.29.68H52.69c-.09-.52-.38-2.91-.51-3.27-.18-.54-.68-.54-1-.54H49.39v3.81H47.33V99Z" transform="translate(0 0)"/><path class="cls-3" d="M58.49,106.45a2.25,2.25,0,0,0,3.47-.12,4.55,4.55,0,0,0,.64-2.7,5.44,5.44,0,0,0-.23-1.68,2.18,2.18,0,0,0-2.15-1.67,2.15,2.15,0,0,0-1.73.79,4.39,4.39,0,0,0-.69,2.74,4.34,4.34,0,0,0,.71,2.64Zm1.71-7.62a4.38,4.38,0,0,1,3.31,1.28,5.43,5.43,0,0,1,1.2,3.55,5.8,5.8,0,0,1-1.19,3.69,4.49,4.49,0,0,1-3.35,1.34,4.56,4.56,0,0,1-3.34-1.29,5.18,5.18,0,0,1-1.16-3.52c0-2.51,1.14-5,4.53-5Z" transform="translate(0 0)"/><polygon class="cls-3" points="67.75 100.59 64.94 100.59 64.94 99.03 72.59 99.03 72.59 100.59 69.78 100.59 69.78 108.46 67.75 108.46 67.75 100.59 67.75 100.59"/><polygon class="cls-3" points="73.69 99.03 80.01 99.03 80.01 100.57 75.72 100.57 75.72 102.81 79.74 102.81 79.74 104.35 75.72 104.35 75.72 106.89 80.15 106.89 80.15 108.46 73.69 108.46 73.69 99.03 73.69 99.03"/><path class="cls-3" d="M86.91,102.1c0-.33-.16-1.65-1.53-1.65S83.26,102,83.26,104c0,.56,0,3.23,2,3.23a1.66,1.66,0,0,0,1.7-1.79H89a3.23,3.23,0,0,1-.85,2.22,3.7,3.7,0,0,1-2.75,1.06c-3.25,0-4.3-2.4-4.3-4.74,0-3,1.67-5,4.32-5,2.06,0,3.51,1.25,3.51,3.13Z" transform="translate(0 0)"/><polygon class="cls-3" points="92.39 100.59 89.58 100.59 89.58 99.03 97.22 99.03 97.22 100.59 94.42 100.59 94.42 108.46 92.39 108.46 92.39 100.59 92.39 100.59"/><polygon class="cls-3" points="98.15 99 100.17 99 100.17 108.46 98.15 108.46 98.15 99 98.15 99"/><path class="cls-3" d="M104.36,106.45a2.25,2.25,0,0,0,3.47-.12,4.54,4.54,0,0,0,.64-2.7,5.46,5.46,0,0,0-.24-1.68,2.18,2.18,0,0,0-2.15-1.67,2.15,2.15,0,0,0-1.74.79,5.52,5.52,0,0,0,0,5.38Zm1.71-7.62a4.38,4.38,0,0,1,3.31,1.28,5.43,5.43,0,0,1,1.2,3.55,5.8,5.8,0,0,1-1.19,3.69,4.49,4.49,0,0,1-3.35,1.34,4.56,4.56,0,0,1-3.34-1.29,5.18,5.18,0,0,1-1.16-3.52c0-2.51,1.14-5,4.53-5Z" transform="translate(0 0)"/><polygon class="cls-3" points="112.08 99.03 115 99.03 118.53 106.45 118.53 99.03 120.41 99.03 120.41 108.46 117.63 108.46 113.98 100.63 113.98 108.46 112.08 108.46 112.08 99.03 112.08 99.03"/></g></g></svg>