<svg xmlns="http://www.w3.org/2000/svg" viewBox="0 0 206.37 206"><defs><style>.cls-1{isolation:isolate;}.cls-2{opacity:0.35;mix-blend-mode:multiply;}.cls-3{fill:#fff;}</style></defs><title>icon-cafe</title><g class="cls-1"><g id="Capa_2" data-name="Capa 2"><g id="Capa_1-2" data-name="Capa 1"><g class="cls-2"><path d="M176.34,49.18A63.37,63.37,0,0,0,113,112.58a20.08,20.08,0,0,0,20,20h3.34A63.37,63.37,0,0,0,199.7,69.2a20.08,20.08,0,0,0-20-20Zm-40,90.09H133a26.77,26.77,0,0,1-26.69-26.69,70.06,70.06,0,0,1,70.07-70.07h3.34A26.77,26.77,0,0,1,206.37,69.2a70.06,70.06,0,0,1-70.07,70.07Z"/><path d="M116.29,132.26a3.15,3.15,0,0,1-3.34-3.34,43.22,43.22,0,0,1,43.37-43c21.35,0,36.7-14,36.7-33a3.34,3.34,0,0,1,6.67,0c0,23-18.35,39.7-43.37,39.7a36.53,36.53,0,0,0-36.7,36.37,3.34,3.34,0,0,1-3.34,3.34Z"/><path d="M59.23,119.25a31.28,31.28,0,0,1-12-2.67,70.91,70.91,0,0,1-35.7-36,3.29,3.29,0,1,1,6-2.67c6,14.35,17.35,25.69,32,32.7,10.34,5,23,.67,28-9l1.67-3a59.26,59.26,0,0,0,3.34-47c-5.67-16.35-17.68-29.36-33.7-37-10-4.67-22.69-.67-27.69,9.34L19.53,26.5a60.25,60.25,0,0,0-6.67,26,3.34,3.34,0,0,1-6.67,0,66.54,66.54,0,0,1,7.34-28.69l1.67-3c6.67-13,23.36-18.68,37-12,17.68,8.34,31,22.69,37.37,40.71a65.8,65.8,0,0,1-3.67,52l-1.67,3a28.48,28.48,0,0,1-25,14.68Z"/><path d="M66.57,118.25a2,2,0,0,1-1.33-.33,38,38,0,0,1-21-24.36A40,40,0,0,1,49.56,61.2c8.34-18.35,0-39-19-47.71a3.29,3.29,0,1,1,2.67-6c22.35,10.34,32,34.7,22.35,56.39a.33.33,0,0,1-.33.33c-5.34,8.34-7.34,18-4.67,27,2.34,8.68,8.67,16,17.35,20.35a3.31,3.31,0,0,1,1.67,4.34,3.21,3.21,0,0,1-3,2.34Z"/><path d="M21.53,183c26.36,22.69,67.73,21.69,92.09-2.34a19,19,0,0,0-.67-27.69l-2.67-2.34c-26.69-24.69-68.06-23.69-92.09,2A22.42,22.42,0,0,0,12.86,167a18.3,18.3,0,0,0,6.34,13.68L21.53,183Zm45.38,23a76.65,76.65,0,0,1-49.71-18h0l-2.34-2.34A26.65,26.65,0,0,1,6.18,167c-.33-7,2.67-13.68,7.67-19,26.69-28.36,72.07-29.69,101.43-2.34l2.34,2.34a25.9,25.9,0,0,1,8.67,18.35c.33,7-2.67,13.68-7.67,19A73.75,73.75,0,0,1,66.91,206Z"/><path d="M95.93,182.64c-10.68,0-21.35-5-31-14.68-16.35-16.35-34.37-16-53.38,1.33-1.33,1.33-3.34,1-4.67-.33s-1-3.34.33-4.67c21.35-19.35,43.71-19.69,62.39-1,16.35,16.68,34.7,17,51,1.33a3.3,3.3,0,1,1,4.67,4.67c-9.34,9-19.35,13.35-29.36,13.35Z"/><path d="M12.86,65.87a3.15,3.15,0,0,0-3.34-3.34,3.34,3.34,0,1,0,0,6.67,3.15,3.15,0,0,0,3.34-3.34"/></g><path class="cls-3" d="M170.34,43.18A63.37,63.37,0,0,0,107,106.58a20.08,20.08,0,0,0,20,20h3.34A63.37,63.37,0,0,0,193.7,63.2a20.08,20.08,0,0,0-20-20Zm-40,90.09H127a26.77,26.77,0,0,1-26.69-26.69,70.06,70.06,0,0,1,70.07-70.07h3.34A26.77,26.77,0,0,1,200.37,63.2a70.06,70.06,0,0,1-70.07,70.07Z"/><path class="cls-3" d="M110.29,126.26a3.15,3.15,0,0,1-3.34-3.34,43.22,43.22,0,0,1,43.37-43c21.35,0,36.7-14,36.7-33a3.34,3.34,0,0,1,6.67,0c0,23-18.35,39.7-43.37,39.7a36.53,36.53,0,0,0-36.7,36.37,3.34,3.34,0,0,1-3.34,3.34Z"/><path class="cls-3" d="M53.23,113.25a31.28,31.28,0,0,1-12-2.67,70.91,70.91,0,0,1-35.7-36,3.29,3.29,0,1,1,6-2.67c6,14.35,17.35,25.69,32,32.7,10.34,5,23,.67,28-9l1.67-3a59.26,59.26,0,0,0,3.34-47c-5.67-16.35-17.68-29.36-33.7-37-10-4.67-22.69-.67-27.69,9.34L13.53,20.5a60.25,60.25,0,0,0-6.67,26,3.34,3.34,0,0,1-6.67,0A66.54,66.54,0,0,1,7.52,17.83l1.67-3c6.67-13,23.36-18.68,37-12,17.68,8.34,31,22.69,37.37,40.71a65.8,65.8,0,0,1-3.67,52l-1.67,3a28.48,28.48,0,0,1-25,14.68Z"/><path class="cls-3" d="M60.57,112.25a2,2,0,0,1-1.33-.33,38,38,0,0,1-21-24.36A40,40,0,0,1,43.56,55.2c8.34-18.35,0-39-19-47.71a3.29,3.29,0,1,1,2.67-6c22.35,10.34,32,34.7,22.35,56.39a.33.33,0,0,1-.33.33c-5.34,8.34-7.34,18-4.67,27,2.34,8.68,8.67,16,17.35,20.35a3.31,3.31,0,0,1,1.67,4.34,3.21,3.21,0,0,1-3,2.34Z"/><path class="cls-3" d="M15.53,177c26.36,22.69,67.73,21.69,92.09-2.34a19,19,0,0,0-.67-27.69l-2.67-2.34c-26.69-24.69-68.06-23.69-92.09,2A22.42,22.42,0,0,0,6.86,161a18.3,18.3,0,0,0,6.34,13.68L15.53,177Zm45.38,23a76.65,76.65,0,0,1-49.71-18h0l-2.34-2.34A26.65,26.65,0,0,1,.18,161c-.33-7,2.67-13.68,7.67-19,26.69-28.36,72.07-29.69,101.43-2.34l2.34,2.34a25.9,25.9,0,0,1,8.67,18.35c.33,7-2.67,13.68-7.67,19A73.75,73.75,0,0,1,60.91,200Z"/><path class="cls-3" d="M89.93,176.64c-10.68,0-21.35-5-31-14.68-16.35-16.35-34.37-16-53.38,1.33-1.33,1.33-3.34,1-4.67-.33s-1-3.34.33-4.67c21.35-19.35,43.71-19.69,62.39-1,16.35,16.68,34.7,17,51,1.33a3.3,3.3,0,1,1,4.67,4.67c-9.34,9-19.35,13.35-29.36,13.35Z"/><path class="cls-3" d="M6.86,59.87a3.15,3.15,0,0,0-3.34-3.34,3.34,3.34,0,1,0,0,6.67,3.15,3.15,0,0,0,3.34-3.34"/></g></g></g></svg>