<svg xmlns="http://www.w3.org/2000/svg" viewBox="0 0 209.62 206"><defs><style>.cls-1{isolation:isolate;}.cls-2{opacity:0.35;mix-blend-mode:multiply;}.cls-3{fill:#fff;}</style></defs><title>icon-arroz</title><g class="cls-1"><g id="Capa_2" data-name="Capa 2"><g id="Capa_1-2" data-name="Capa 1"><g class="cls-2"><path d="M30.82,188.53a3.41,3.41,0,0,1-3.41,3.41A21.43,21.43,0,0,1,6,170.53V41A21.43,21.43,0,0,1,27.41,19.55h82.26a21.4,21.4,0,0,1,13.62,4.92,3.41,3.41,0,1,1-4.34,5.25,14.59,14.59,0,0,0-9.27-3.35H27.41A14.61,14.61,0,0,0,12.81,41V170.53a14.61,14.61,0,0,0,14.6,14.59,3.41,3.41,0,0,1,3.41,3.41ZM111.35,35.28H25.73a3.41,3.41,0,0,0,0,6.81h85.61a3.41,3.41,0,0,0,0-6.81Zm9.83,25,5.56-24.49a3.41,3.41,0,0,1,6.65,1.51L128.64,58.2a15.23,15.23,0,0,1,6.06,2.14l1.68-7.4a15.11,15.11,0,0,1,10.33-11.06l7.55-33.23a3.41,3.41,0,0,1,6.65,1.51l-7.55,33.23a15.11,15.11,0,0,1,4.54,14.44l-1.68,7.4a15.23,15.23,0,0,1,6.39.68L167.35,45A3.41,3.41,0,1,1,174,46.54L168.44,71a15,15,0,0,1-6.87,15.11l-2,1.21A15,15,0,0,1,162.32,89a3.41,3.41,0,0,1,1.26,2,15.12,15.12,0,0,1-6.69,15.86l-9.28,5.85a17.21,17.21,0,0,1-10.52,2.1,3.46,3.46,0,0,1-.09.62,104.32,104.32,0,0,1-4.58,15.07,3.41,3.41,0,0,1-3.18,2.18,3.37,3.37,0,0,1-1.23-.23,3.41,3.41,0,0,1-1.94-4.41,97.4,97.4,0,0,0,4.28-14.11l0-.09a3.6,3.6,0,0,1,.17-.51A17.22,17.22,0,0,1,122,106.9l-5.85-9.28a15.12,15.12,0,0,1,.81-17.19,3.41,3.41,0,0,1,2-1.26,15.58,15.58,0,0,1,3.19-.32l-1.26-1.95a15,15,0,0,1,.33-16.59Zm19.23,6.23,3.09,4.91,4.91-3.09a8.39,8.39,0,0,0,.42-1.32l2.43-10.7a8.27,8.27,0,0,0-2.53-7.93,8.27,8.27,0,0,0-5.7,6.06l-2.43,10.7a7.92,7.92,0,0,0-.19,1.37Zm-13.84,6.66,8,12.36.2.31,4,6.34,6.33-4,0,0,.3-.18L158,80.33A8.1,8.1,0,0,0,161.79,73a8.28,8.28,0,0,0-8.32.25L144.24,79a3.41,3.41,0,0,1-4.7-1.07l-5.41-8.59-.4-.64a8.25,8.25,0,0,0-7.4-3.82,8.1,8.1,0,0,0,.23,8.28Zm-4.94,12.48a8.27,8.27,0,0,0,.25,8.32l5.84,9.28c2.64,4.19,12.05,6.33,16.25,3.69l9.28-5.85a8.27,8.27,0,0,0,3.83-7.39,8.28,8.28,0,0,0-8.13.13l-.21.13-9.21,5.8a3.41,3.41,0,0,1-4.7-1.07l-5.94-9.43a8.29,8.29,0,0,0-7.26-3.62ZM84.75,133.88h1a3.41,3.41,0,0,0,0-6.82h-1a3.41,3.41,0,1,0,0,6.82ZM39,172.81a3.41,3.41,0,0,0-3.41-3.41H25.73a3.41,3.41,0,0,0,0,6.82h9.88A3.41,3.41,0,0,0,39,172.81ZM76.8,139.92h-1a3.41,3.41,0,0,0,0,6.82h1a3.41,3.41,0,0,0,0-6.82Zm30.72,0h-1a3.41,3.41,0,0,0,0,6.82h1a3.41,3.41,0,1,0,0-6.82Zm-9-12.86h-1a3.41,3.41,0,1,0,0,6.82h1a3.41,3.41,0,0,0,0-6.82Zm109.89-16.52L183,132.44A15.13,15.13,0,0,1,178,146.75l-5.75,4.94A15.2,15.2,0,0,1,177,156l16.24-14a3.41,3.41,0,0,1,4.44,5.17l-19,16.37a15.13,15.13,0,0,1-14.47,8.06l-2.19-.17a15.2,15.2,0,0,1,1,2.67,3.41,3.41,0,0,1-.18,2.36,15.13,15.13,0,0,1-13.7,8.81q-.55,0-1.11,0a3.41,3.41,0,0,1,.51-6.8,8.27,8.27,0,0,0,7.47-3.67,8.28,8.28,0,0,0-4.63-4.26,19.88,19.88,0,0,1-10.22-6.69,21,21,0,0,1-4.84-9.32,3.44,3.44,0,0,1-.28-1,8.29,8.29,0,0,0-4.78-6.63,3.41,3.41,0,1,1,2.84-6.2,15.06,15.06,0,0,1,2.63,1.55l.17-2.27A15.13,15.13,0,0,1,147,126.91l18.32-17.11a3.41,3.41,0,1,1,4.65,5l-15.77,14.74a15.21,15.21,0,0,1,3.72,5.45l5.75-4.95a15.11,15.11,0,0,1,14.89-2.74L204,105.38a3.41,3.41,0,1,1,4.44,5.17Zm-36.27,50.67a8.27,8.27,0,0,0-6.84-4.75l-.65,0h-.12l-10.11-.76a3.41,3.41,0,0,1-3.14-3.65l.82-10.87a8.27,8.27,0,0,0-3.67-7.47,8.27,8.27,0,0,0-4.75,6.84l-.82,10.94c-.17,2.26,1.16,5.33,3.46,8s5.14,4.45,7.4,4.62l10.94.83a8.29,8.29,0,0,0,7.47-3.67Zm4.12-27.51a8.28,8.28,0,0,0-8.19,1.48l-8.32,7.15a8.08,8.08,0,0,0-1,1l-.44,5.79,5.79.44a8.25,8.25,0,0,0,1.12-.81l8.32-7.16a8.27,8.27,0,0,0,2.69-7.88Zm-29.5,67.68a3.41,3.41,0,0,1-3.19,4.61H39.7a3.41,3.41,0,0,1-3.19-4.61l22.22-58.75c8.66-22.91,20.35-35.53,32.91-35.53s24.25,12.62,32.91,35.53Zm-8.12-2.2L118.18,145c-7.48-19.78-17.15-31.13-26.54-31.13S72.59,125.27,65.11,145L44.63,199.19ZM98.54,178.11h-1a3.41,3.41,0,1,0,0,6.82h1a3.41,3.41,0,0,0,0-6.82ZM85.78,154.28h-1a3.41,3.41,0,0,0,0,6.81h1a3.41,3.41,0,1,0,0-6.81Zm9.79-10.95a3.41,3.41,0,0,0-3.41-3.41h-1a3.41,3.41,0,0,0,0,6.82h1a3.4,3.4,0,0,0,3.41-3.41Zm0,0"/></g><path class="cls-3" d="M24.82,182.53a3.41,3.41,0,0,1-3.41,3.41A21.43,21.43,0,0,1,0,164.53V35A21.43,21.43,0,0,1,21.41,13.55h82.26a21.4,21.4,0,0,1,13.62,4.92,3.41,3.41,0,1,1-4.34,5.25,14.59,14.59,0,0,0-9.27-3.35H21.41A14.61,14.61,0,0,0,6.81,35V164.53a14.61,14.61,0,0,0,14.6,14.59,3.41,3.41,0,0,1,3.41,3.41ZM105.35,29.28H19.73a3.41,3.41,0,0,0,0,6.81h85.61a3.41,3.41,0,0,0,0-6.81Zm9.83,25,5.56-24.49a3.41,3.41,0,0,1,6.65,1.51L122.64,52.2a15.23,15.23,0,0,1,6.06,2.14l1.68-7.4a15.11,15.11,0,0,1,10.33-11.06l7.55-33.23a3.41,3.41,0,0,1,6.65,1.51l-7.55,33.23a15.11,15.11,0,0,1,4.54,14.44l-1.68,7.4a15.23,15.23,0,0,1,6.39.68L161.35,39A3.41,3.41,0,1,1,168,40.54L162.44,65a15,15,0,0,1-6.87,15.11l-2,1.21A15,15,0,0,1,156.32,83a3.41,3.41,0,0,1,1.26,2,15.12,15.12,0,0,1-6.69,15.86l-9.28,5.85a17.21,17.21,0,0,1-10.52,2.1,3.46,3.46,0,0,1-.09.62,104.32,104.32,0,0,1-4.58,15.07,3.41,3.41,0,0,1-3.18,2.18,3.37,3.37,0,0,1-1.23-.23,3.41,3.41,0,0,1-1.94-4.41,97.4,97.4,0,0,0,4.28-14.11l0-.09a3.6,3.6,0,0,1,.17-.51A17.22,17.22,0,0,1,116,100.9l-5.85-9.28a15.12,15.12,0,0,1,.81-17.19,3.41,3.41,0,0,1,2-1.26,15.58,15.58,0,0,1,3.19-.32l-1.26-1.95a15,15,0,0,1,.33-16.59Zm19.23,6.23,3.09,4.91,4.91-3.09a8.39,8.39,0,0,0,.42-1.32l2.43-10.7a8.27,8.27,0,0,0-2.53-7.93,8.27,8.27,0,0,0-5.7,6.06l-2.43,10.7a7.92,7.92,0,0,0-.19,1.37Zm-13.84,6.66,8,12.36.2.31,4,6.34,6.33-4,0,0,.3-.18L152,74.33A8.1,8.1,0,0,0,155.79,67a8.28,8.28,0,0,0-8.32.25L138.24,73a3.41,3.41,0,0,1-4.7-1.07l-5.41-8.59-.4-.64a8.25,8.25,0,0,0-7.4-3.82,8.1,8.1,0,0,0,.23,8.28Zm-4.94,12.48a8.27,8.27,0,0,0,.25,8.32l5.84,9.28c2.64,4.19,12.05,6.33,16.25,3.69l9.28-5.85a8.27,8.27,0,0,0,3.83-7.39,8.28,8.28,0,0,0-8.13.13l-.21.13-9.21,5.8a3.41,3.41,0,0,1-4.7-1.07l-5.94-9.43a8.29,8.29,0,0,0-7.26-3.62ZM78.75,127.88h1a3.41,3.41,0,0,0,0-6.82h-1a3.41,3.41,0,1,0,0,6.82ZM33,166.81a3.41,3.41,0,0,0-3.41-3.41H19.73a3.41,3.41,0,0,0,0,6.82h9.88A3.41,3.41,0,0,0,33,166.81ZM70.8,133.92h-1a3.41,3.41,0,0,0,0,6.82h1a3.41,3.41,0,0,0,0-6.82Zm30.72,0h-1a3.41,3.41,0,0,0,0,6.82h1a3.41,3.41,0,1,0,0-6.82Zm-9-12.86h-1a3.41,3.41,0,1,0,0,6.82h1a3.41,3.41,0,0,0,0-6.82Zm109.89-16.52L177,126.44A15.13,15.13,0,0,1,172,140.75l-5.75,4.94A15.2,15.2,0,0,1,171,150l16.24-14a3.41,3.41,0,0,1,4.44,5.17l-19,16.37a15.13,15.13,0,0,1-14.47,8.06l-2.19-.17a15.2,15.2,0,0,1,1,2.67,3.41,3.41,0,0,1-.18,2.36,15.13,15.13,0,0,1-13.7,8.81q-.55,0-1.11,0a3.41,3.41,0,0,1,.51-6.8,8.27,8.27,0,0,0,7.47-3.67,8.28,8.28,0,0,0-4.63-4.26,19.88,19.88,0,0,1-10.22-6.69,21,21,0,0,1-4.84-9.32,3.44,3.44,0,0,1-.28-1,8.29,8.29,0,0,0-4.78-6.63,3.41,3.41,0,1,1,2.84-6.2,15.06,15.06,0,0,1,2.63,1.55l.17-2.27A15.13,15.13,0,0,1,141,120.91l18.32-17.11a3.41,3.41,0,1,1,4.65,5l-15.77,14.74a15.21,15.21,0,0,1,3.72,5.45l5.75-4.95a15.11,15.11,0,0,1,14.89-2.74L198,99.38a3.41,3.41,0,1,1,4.44,5.17Zm-36.27,50.67a8.27,8.27,0,0,0-6.84-4.75l-.65,0h-.12l-10.11-.76a3.41,3.41,0,0,1-3.14-3.65l.82-10.87a8.27,8.27,0,0,0-3.67-7.47,8.27,8.27,0,0,0-4.75,6.84l-.82,10.94c-.17,2.26,1.16,5.33,3.46,8s5.14,4.45,7.4,4.62l10.94.83a8.29,8.29,0,0,0,7.47-3.67Zm4.12-27.51a8.28,8.28,0,0,0-8.19,1.48l-8.32,7.15a8.08,8.08,0,0,0-1,1l-.44,5.79,5.79.44a8.25,8.25,0,0,0,1.12-.81l8.32-7.16a8.27,8.27,0,0,0,2.69-7.88Zm-29.5,67.68a3.41,3.41,0,0,1-3.19,4.61H33.7a3.41,3.41,0,0,1-3.19-4.61l22.22-58.75c8.66-22.91,20.35-35.53,32.91-35.53s24.25,12.62,32.91,35.53Zm-8.12-2.2L112.18,139C104.7,119.27,95,107.92,85.65,107.92S66.59,119.27,59.11,139L38.63,193.19ZM92.54,172.11h-1a3.41,3.41,0,1,0,0,6.82h1a3.41,3.41,0,0,0,0-6.82ZM79.78,148.28h-1a3.41,3.41,0,0,0,0,6.81h1a3.41,3.41,0,1,0,0-6.81Zm9.79-10.95a3.41,3.41,0,0,0-3.41-3.41h-1a3.41,3.41,0,0,0,0,6.82h1a3.4,3.4,0,0,0,3.41-3.41Zm0,0"/></g></g></g></svg>