<svg xmlns="http://www.w3.org/2000/svg" viewBox="0 0 196.69 206"><defs><style>.cls-1{isolation:isolate;}.cls-2{opacity:0.35;mix-blend-mode:multiply;}.cls-3{fill:#fff;}</style></defs><title>icon-soya</title><g class="cls-1"><g id="Capa_2" data-name="Capa 2"><g id="Capa_1-2" data-name="Capa 1"><g class="cls-2"><path d="M189.27,8.05a4,4,0,0,0-7.21.51c0,.11-4.31,10.85-21,16-18.38,5.67-31.14,12-37.93,18.76a60,60,0,0,0-12,16.94,37.44,37.44,0,0,1-18,18,61.65,61.65,0,0,0-28.94,28.94,37.43,37.43,0,0,1-18,18,60,60,0,0,0-16.94,12C20.86,145.59,17.64,155,14.53,164l-.59,1.7c-1.93,5.57-6.95,11.54-7,11.6a4,4,0,0,0,.21,5.39c.11.11,10.8,10.87,14.32,14.39,5.83,5.83,13.78,8.9,22.81,8.9a42.82,42.82,0,0,0,6.13-.45c11.11-1.61,22.14-7.4,31.06-16.32a60,60,0,0,0,12-16.94,37.43,37.43,0,0,1,18-18,61.63,61.63,0,0,0,28.94-28.94,37.43,37.43,0,0,1,18-17.95,60.07,60.07,0,0,0,16.94-12C184.71,86,193.63,66.4,196,49.9a71.86,71.86,0,0,0-6.71-41.85ZM188.1,48.77c-2.07,14.51-10.36,32.92-18.48,41a52.11,52.11,0,0,1-14.69,10.42A45.41,45.41,0,0,0,133.15,122,53.69,53.69,0,0,1,108,147.12,45.42,45.42,0,0,0,86.25,168.9a52.09,52.09,0,0,1-10.42,14.69c-7.71,7.71-17.14,12.7-26.56,14.07-9,1.3-16.86-.9-22.16-6.2C24.65,189,18.67,183,15.27,179.57a46.35,46.35,0,0,0,6.2-11.24l.59-1.72C25,158,27.8,149.92,35,142.74a52.1,52.1,0,0,1,14.69-10.42,45.41,45.41,0,0,0,21.78-21.78A53.69,53.69,0,0,1,96.57,85.43a45.41,45.41,0,0,0,21.78-21.78A52.06,52.06,0,0,1,128.77,49c5.77-5.78,17.75-11.58,34.64-16.79,11.13-3.43,17.83-9.14,21.64-13.71a65.37,65.37,0,0,1,3,30.32Zm0,0"/><path d="M122.4,96.17c-4.27-4.27-10.43-6-17.35-4.9A35.4,35.4,0,0,0,77.3,119c-1.11,6.92.63,13.09,4.9,17.35a18.44,18.44,0,0,0,13.36,5.22,25.41,25.41,0,0,0,4-.33,35.4,35.4,0,0,0,27.75-27.75c1.11-6.92-.63-13.08-4.9-17.35ZM112,126a25.65,25.65,0,0,1-13.7,7.44c-4.33.7-8-.25-10.46-2.66s-3.36-6.13-2.66-10.46a25.63,25.63,0,0,1,7.45-13.7c4.95-4.95,11.17-7.64,16.42-7.64a10.67,10.67,0,0,1,7.74,2.86c5.25,5.25,3.06,16.31-4.78,24.16Zm0,0"/><path d="M75.51,143.07c-4.27-4.27-10.43-6-17.35-4.9a33.61,33.61,0,0,0-18.07,9.68,33.62,33.62,0,0,0-9.68,18.07C29.3,172.84,31,179,35.3,183.27a18.44,18.44,0,0,0,13.36,5.22,25.23,25.23,0,0,0,4-.33,33.61,33.61,0,0,0,18.07-9.68,33.62,33.62,0,0,0,9.68-18.07c1.11-6.92-.63-13.09-4.9-17.35Zm-3,16.09a25.61,25.61,0,0,1-7.44,13.7c-7.84,7.84-18.91,10-24.16,4.78s-3.06-16.31,4.78-24.16A25.63,25.63,0,0,1,59.42,146a17,17,0,0,1,2.69-.22,10.69,10.69,0,0,1,7.76,2.89c2.41,2.41,3.36,6.12,2.66,10.46Zm0,0"/><path d="M169.3,49.28c-4.27-4.27-10.43-6-17.35-4.89a35.39,35.39,0,0,0-27.75,27.75c-1.11,6.92.63,13.08,4.9,17.35a18.44,18.44,0,0,0,13.36,5.22,25.18,25.18,0,0,0,4-.33,33.62,33.62,0,0,0,18.07-9.68,33.63,33.63,0,0,0,9.68-18.07c1.11-6.92-.63-13.09-4.9-17.35Zm-3,16.09a25.62,25.62,0,0,1-7.44,13.7c-7.84,7.84-18.91,10-24.16,4.78s-3.06-16.32,4.78-24.16a25.64,25.64,0,0,1,13.7-7.44A17,17,0,0,1,155.9,52a10.69,10.69,0,0,1,7.77,2.89c2.41,2.41,3.36,6.13,2.66,10.46Zm0,0"/><path d="M61.62,166.75a4,4,0,0,0-5.62-.43c-2.91,2.5-5.69,3.61-7.17,3.61h0a4,4,0,1,0-.09,8h.12c3.76,0,8.26-2,12.36-5.54a4,4,0,0,0,.43-5.62Zm0,0"/><path d="M66.85,156.21a4,4,0,0,0-5.11,2.38c-.12.34-.27.7-.45,1.07a4,4,0,0,0,7.19,3.43c.28-.6.53-1.19.75-1.77a4,4,0,0,0-2.38-5.11Zm0,0"/></g><path class="cls-3" d="M183.27,2.05a4,4,0,0,0-7.21.51c0,.11-4.31,10.85-21,16-18.38,5.67-31.14,12-37.93,18.76a60,60,0,0,0-12,16.94,37.44,37.44,0,0,1-18,18,61.65,61.65,0,0,0-28.94,28.94,37.43,37.43,0,0,1-18,18,60,60,0,0,0-16.94,12C14.86,139.59,11.64,149,8.53,158l-.59,1.7C6,165.3,1,171.27.95,171.32a4,4,0,0,0,.21,5.39c.11.11,10.8,10.87,14.32,14.39,5.83,5.83,13.78,8.9,22.81,8.9a42.82,42.82,0,0,0,6.13-.45c11.11-1.61,22.14-7.4,31.06-16.32a60,60,0,0,0,12-16.94,37.43,37.43,0,0,1,18-18,61.63,61.63,0,0,0,28.94-28.94,37.43,37.43,0,0,1,18-17.95,60.07,60.07,0,0,0,16.94-12C178.71,80,187.63,60.4,190,43.9a71.86,71.86,0,0,0-6.71-41.85ZM182.1,42.77c-2.07,14.51-10.36,32.92-18.48,41a52.11,52.11,0,0,1-14.69,10.42A45.41,45.41,0,0,0,127.15,116,53.69,53.69,0,0,1,102,141.12,45.42,45.42,0,0,0,80.25,162.9a52.09,52.09,0,0,1-10.42,14.69c-7.71,7.71-17.14,12.7-26.56,14.07-9,1.3-16.86-.9-22.16-6.2C18.65,183,12.67,177,9.27,173.57a46.35,46.35,0,0,0,6.2-11.24l.59-1.72C19,152,21.8,143.92,29,136.74a52.1,52.1,0,0,1,14.69-10.42,45.41,45.41,0,0,0,21.78-21.78A53.69,53.69,0,0,1,90.57,79.43a45.41,45.41,0,0,0,21.78-21.78A52.06,52.06,0,0,1,122.77,43c5.77-5.78,17.75-11.58,34.64-16.79,11.13-3.43,17.83-9.14,21.64-13.71a65.37,65.37,0,0,1,3,30.32Zm0,0"/><path class="cls-3" d="M116.4,90.17c-4.27-4.27-10.43-6-17.35-4.9A35.4,35.4,0,0,0,71.3,113c-1.11,6.92.63,13.09,4.9,17.35a18.44,18.44,0,0,0,13.36,5.22,25.41,25.41,0,0,0,4-.33,35.4,35.4,0,0,0,27.75-27.75c1.11-6.92-.63-13.08-4.9-17.35ZM106,120a25.65,25.65,0,0,1-13.7,7.44c-4.33.7-8-.25-10.46-2.66s-3.36-6.13-2.66-10.46a25.63,25.63,0,0,1,7.45-13.7c4.95-4.95,11.17-7.64,16.42-7.64a10.67,10.67,0,0,1,7.74,2.86c5.25,5.25,3.06,16.31-4.78,24.16Zm0,0"/><path class="cls-3" d="M69.51,137.07c-4.27-4.27-10.43-6-17.35-4.9a33.61,33.61,0,0,0-18.07,9.68,33.62,33.62,0,0,0-9.68,18.07C23.3,166.84,25,173,29.3,177.27a18.44,18.44,0,0,0,13.36,5.22,25.23,25.23,0,0,0,4-.33,33.61,33.61,0,0,0,18.07-9.68,33.62,33.62,0,0,0,9.68-18.07c1.11-6.92-.63-13.09-4.9-17.35Zm-3,16.09a25.61,25.61,0,0,1-7.44,13.7c-7.84,7.84-18.91,10-24.16,4.78s-3.06-16.31,4.78-24.16A25.63,25.63,0,0,1,53.42,140a17,17,0,0,1,2.69-.22,10.69,10.69,0,0,1,7.76,2.89c2.41,2.41,3.36,6.12,2.66,10.46Zm0,0"/><path class="cls-3" d="M163.3,43.28c-4.27-4.27-10.43-6-17.35-4.89a33.61,33.61,0,0,0-18.07,9.68,33.63,33.63,0,0,0-9.68,18.07c-1.11,6.92.63,13.08,4.9,17.35a18.44,18.44,0,0,0,13.36,5.22,25.18,25.18,0,0,0,4-.33,33.62,33.62,0,0,0,18.07-9.68,33.63,33.63,0,0,0,9.68-18.07c1.11-6.92-.63-13.09-4.9-17.35Zm-3,16.09a25.62,25.62,0,0,1-7.44,13.7c-7.84,7.84-18.91,10-24.16,4.78s-3.06-16.32,4.78-24.16a25.64,25.64,0,0,1,13.7-7.44A17,17,0,0,1,149.9,46a10.69,10.69,0,0,1,7.77,2.89c2.41,2.41,3.36,6.13,2.66,10.46Zm0,0"/><path class="cls-3" d="M55.62,160.75a4,4,0,0,0-5.62-.43c-2.91,2.5-5.69,3.61-7.17,3.61h0a4,4,0,1,0-.09,8h.12c3.76,0,8.26-2,12.36-5.54a4,4,0,0,0,.43-5.62Zm0,0"/><path class="cls-3" d="M60.85,150.21a4,4,0,0,0-5.11,2.38c-.12.34-.27.7-.45,1.07a4,4,0,0,0,7.19,3.43c.28-.6.53-1.19.75-1.77a4,4,0,0,0-2.38-5.11Zm0,0"/></g></g></g></svg>