<svg xmlns="http://www.w3.org/2000/svg" viewBox="0 0 291.85 206"><defs><style>.cls-1{isolation:isolate;}.cls-2{opacity:0.35;mix-blend-mode:multiply;}.cls-3{fill:#fff;}</style></defs><title>icon-pasto</title><g class="cls-1"><g id="Capa_2" data-name="Capa 2"><g id="Capa_1-2" data-name="Capa 1"><g class="cls-2"><path d="M22.13,197.35H14.78a4.25,4.25,0,0,0,0,8.49h7.36a4.25,4.25,0,0,0,0-8.49Z"/><path d="M282.7,197.35H266.1a4.25,4.25,0,1,0,0,8.49H282.7a4.25,4.25,0,1,0,0-8.49Z"/><path d="M282,142a576.15,576.15,0,0,0-42.75,40.38c-4.7,4.87-9.39,9.89-14,14.93H212.45a401.62,401.62,0,0,1,21.91-42.87h0c15.5-9.67,30.54-16,44.73-18.72a3.58,3.58,0,0,1,3,6.29Zm-94.53,55.3h-5.91c-1.75-37.85,2.32-75.61,7-104.43.12-.16,23.32-43.76,48.14-56.61a3.8,3.8,0,0,1,4.39.34,3.58,3.58,0,0,1,.75,4.34c-.11.21-36.32,59-54.33,156.37Zm-51.54,0a481.41,481.41,0,0,1,6.29-68.1c3.83-23,9.19-43.61,15.94-61.25,8.52-22.26,19.3-39.89,32-52.39a3.67,3.67,0,0,1,4.37-.5,3.49,3.49,0,0,1,1.57,4.12,584.6,584.6,0,0,0-13.38,57.26c-5.61,30.24-11.75,75.42-9.7,120.88H136ZM116.73,76.43c-6-34-12.67-57.08-12.74-57.31A3.67,3.67,0,0,1,105.51,15a3.22,3.22,0,0,1,4,.51C121.86,28,132.26,45.7,140.43,68c1.52,4.14,3,8.5,4.34,13C130,128,127.66,187,127.49,197.34h-1.89c2.2-45.44-3.56-90.64-8.88-120.9ZM78.89,115l.3.29c9,24.74,17.47,53.55,21.58,82.19H95.45a608.48,608.48,0,0,0-35.07-64.2A577.7,577.7,0,0,0,27,84.92a3.58,3.58,0,0,1,4.21-5.53c16,6.78,32,18.78,47.72,35.64Zm211.81,19.1a12.06,12.06,0,0,0-13.22-6.71,129.74,129.74,0,0,0-34.17,12.22c16.37-26.3,31-45.46,31.31-45.8,1.86-2.46,2.91-3.79,2.92-3.8a12.08,12.08,0,0,0-14.17-18.63c-12.37,5.25-24.7,13.34-36.81,24.12C238.62,65.26,249.24,45.18,249.35,45A12.08,12.08,0,0,0,232,29.23c-14.09,9.3-27.29,23-39.33,40.75,5.72-28.83,11.54-48.08,11.61-48.28A11.84,11.84,0,0,0,199,7.84c-6-3.36-12.38-.45-14.73,1.7-20,18.24-34.68,57.16-35,58-.3-.84-16.65-41.64-33.71-58.07A11.83,11.83,0,0,0,101,7.73,12.18,12.18,0,0,0,95.84,21.5c.06.22,6.15,21.21,11.82,52.41C94.95,54.31,80.89,39.33,65.82,29.38a12.08,12.08,0,0,0-17.3,15.78,555.21,555.21,0,0,1,23.35,51C59.57,85.15,47,76.9,34.48,71.57A12.08,12.08,0,0,0,20.32,90.2c.15.18,20.5,26.33,33.9,49.28a129.47,129.47,0,0,0-33.84-12.06,12.07,12.07,0,0,0-10,21.17,576,576,0,0,1,42,39.73c2.86,3,5.71,6,8.54,9H36.66a4.25,4.25,0,0,0,0,8.49h34s4.57.16,4.34-4.09c-.19-3.5-11.23-14-16.42-19.33A582.7,582.7,0,0,0,15.8,142a3.58,3.58,0,0,1,3-6.28c14.07,2.73,29,9,44.35,18.49,9.63,16.5,18.27,33,25.78,49.28A4.25,4.25,0,0,0,92.74,206h12.89a4.24,4.24,0,0,0,4.21-4.78C99.95,123,56.42,41.92,56,41.14a3.58,3.58,0,0,1,5.14-4.68C87.8,54.67,104,80.33,111.44,97.07c4.22,29.07,7.64,66.28,5.5,103.32,0,.38-.35,5.27,4.17,5.4l70,0a4.25,4.25,0,0,0,4.18-3.51c5.75-32.68,15.41-63.85,24.12-87.89C234.91,97.81,250.83,86,266.69,79.23a3.58,3.58,0,0,1,4.21,5.53S223.83,144.58,202.16,200a4.25,4.25,0,0,0,3.94,5.83H251a4.25,4.25,0,0,0,0-8.49H236.87c2.83-3,5.68-6.07,8.54-9,23.42-24.27,41.86-39.58,42-39.73a12.06,12.06,0,0,0,3.24-14.46Z"/></g><path class="cls-3" d="M16.13,191.35H8.78a4.25,4.25,0,0,0,0,8.49h7.36a4.25,4.25,0,0,0,0-8.49Z"/><path class="cls-3" d="M276.7,191.35H260.1a4.25,4.25,0,1,0,0,8.49H276.7a4.25,4.25,0,1,0,0-8.49Z"/><path class="cls-3" d="M276,136a576.15,576.15,0,0,0-42.75,40.38c-4.7,4.87-9.39,9.89-14,14.93H206.45a401.62,401.62,0,0,1,21.91-42.87h0c15.5-9.67,30.54-16,44.73-18.72a3.58,3.58,0,0,1,3,6.29Zm-94.53,55.3h-5.91c-1.75-37.85,2.32-75.61,7-104.43.12-.16,23.32-43.76,48.14-56.61a3.8,3.8,0,0,1,4.39.34,3.58,3.58,0,0,1,.75,4.34c-.11.21-36.32,59-54.33,156.37Zm-51.54,0a481.41,481.41,0,0,1,6.29-68.1c3.83-23,9.19-43.61,15.94-61.25,8.52-22.26,19.3-39.89,32-52.39a3.67,3.67,0,0,1,4.37-.5,3.49,3.49,0,0,1,1.57,4.12,584.6,584.6,0,0,0-13.38,57.26c-5.61,30.24-11.75,75.42-9.7,120.88H130ZM110.73,70.43c-6-34-12.67-57.08-12.74-57.31A3.67,3.67,0,0,1,99.51,9a3.22,3.22,0,0,1,4,.51C115.86,22,126.26,39.7,134.43,62c1.52,4.14,3,8.5,4.34,13C124,122,121.66,181,121.49,191.34h-1.89c2.2-45.44-3.56-90.64-8.88-120.9ZM72.89,109l.3.29c9,24.74,17.47,53.55,21.58,82.19H89.45a608.48,608.48,0,0,0-35.07-64.2A577.7,577.7,0,0,0,21,78.92a3.58,3.58,0,0,1,4.21-5.53c16,6.78,32,18.78,47.72,35.64Zm211.81,19.1a12.06,12.06,0,0,0-13.22-6.71,129.74,129.74,0,0,0-34.17,12.22c16.37-26.3,31-45.46,31.31-45.8,1.86-2.46,2.91-3.79,2.92-3.8a12.08,12.08,0,0,0-14.17-18.63c-12.37,5.25-24.7,13.34-36.81,24.12C232.62,59.26,243.24,39.18,243.35,39A12.08,12.08,0,0,0,226,23.23c-14.09,9.3-27.29,23-39.33,40.75,5.72-28.83,11.54-48.08,11.61-48.28A11.84,11.84,0,0,0,193,1.84c-6-3.36-12.38-.45-14.73,1.7-20,18.24-34.68,57.16-35,58-.3-.84-16.65-41.64-33.71-58.07A11.83,11.83,0,0,0,95,1.73,12.18,12.18,0,0,0,89.84,15.5c.06.22,6.15,21.21,11.82,52.41C88.95,48.31,74.89,33.33,59.82,23.38a12.08,12.08,0,0,0-17.3,15.78,555.21,555.21,0,0,1,23.35,51C53.57,79.15,41,70.9,28.48,65.57A12.08,12.08,0,0,0,14.32,84.2c.15.18,20.5,26.33,33.9,49.28a129.47,129.47,0,0,0-33.84-12.06,12.07,12.07,0,0,0-10,21.17,576,576,0,0,1,42,39.73c2.86,3,5.71,6,8.54,9H30.66a4.25,4.25,0,0,0,0,8.49h34s4.57.16,4.34-4.09c-.19-3.5-11.23-14-16.42-19.33A582.7,582.7,0,0,0,9.8,136a3.58,3.58,0,0,1,3-6.28c14.07,2.73,29,9,44.35,18.49,9.63,16.5,18.27,33,25.78,49.28A4.25,4.25,0,0,0,86.74,200H99.63a4.24,4.24,0,0,0,4.21-4.78C93.95,117,50.42,35.92,50,35.14a3.58,3.58,0,0,1,5.14-4.68C81.8,48.67,98,74.33,105.44,91.07c4.22,29.07,7.64,66.28,5.5,103.32,0,.38-.35,5.27,4.17,5.4l70,0a4.25,4.25,0,0,0,4.18-3.51c5.75-32.68,15.41-63.85,24.12-87.89C228.91,91.81,244.83,80,260.69,73.23a3.58,3.58,0,0,1,4.21,5.53S217.83,138.58,196.16,194a4.25,4.25,0,0,0,3.94,5.83H245a4.25,4.25,0,0,0,0-8.49H230.87c2.83-3,5.68-6.07,8.54-9,23.42-24.27,41.86-39.58,42-39.73a12.06,12.06,0,0,0,3.24-14.46Z"/></g></g></g></svg>