<svg xmlns="http://www.w3.org/2000/svg" viewBox="0 0 206 206"><defs><style>.cls-1{isolation:isolate;}.cls-2{opacity:0.35;mix-blend-mode:multiply;}.cls-3{fill:#fff;}</style></defs><title>icon-cana-azucar</title><g class="cls-1"><g id="Capa_2" data-name="Capa 2"><g id="Capa_1-2" data-name="Capa 1"><g class="cls-2"><path d="M52.67,206H26a3.34,3.34,0,0,1-3-4.82,25,25,0,0,0,3-11.84v-40a25,25,0,0,0-3-11.84,3.33,3.33,0,0,1,3-4.82H52.67a3.33,3.33,0,0,1,3,4.82,25,25,0,0,0-3,11.84v40a25,25,0,0,0,3,11.84,3.33,3.33,0,0,1-3,4.82M31,199.33H47.64a30.25,30.25,0,0,1-1.64-10v-40a30.25,30.25,0,0,1,1.64-10H31a30.25,30.25,0,0,1,1.64,10v40a30.25,30.25,0,0,1-1.64,10"/><path d="M52.67,139.33H26a3.33,3.33,0,0,1-3-4.82,25,25,0,0,0,3-11.84V86a25,25,0,0,0-3-11.84,3.34,3.34,0,0,1,3-4.82H52.67a3.34,3.34,0,0,1,3,4.82,25,25,0,0,0-3,11.84v36.67a25,25,0,0,0,3,11.84,3.33,3.33,0,0,1-3,4.82M31,132.67H47.64a30.25,30.25,0,0,1-1.64-10V86a30.25,30.25,0,0,1,1.64-10H31a30.25,30.25,0,0,1,1.64,10v36.67a30.25,30.25,0,0,1-1.64,10"/><path d="M52.67,76H26a3.34,3.34,0,0,1-3-4.82,25,25,0,0,0,3-11.84V22.67a25,25,0,0,0-3-11.84A3.34,3.34,0,0,1,26,6H52.67a3.33,3.33,0,0,1,3,4.82,25,25,0,0,0-3,11.84V59.33a25,25,0,0,0,3,11.84,3.33,3.33,0,0,1-3,4.82M31,69.33H47.64a30.25,30.25,0,0,1-1.64-10V22.67a30.25,30.25,0,0,1,1.64-10H31a30.25,30.25,0,0,1,1.64,10V59.33a30.25,30.25,0,0,1-1.64,10"/><path d="M119.33,159.33H92.67a3.33,3.33,0,0,1-3-4.82,25,25,0,0,0,3-11.84V116a25,25,0,0,0-3-11.84,3.34,3.34,0,0,1,3-4.82h26.67a3.34,3.34,0,0,1,3,4.82,25,25,0,0,0-3,11.84v26.67a25,25,0,0,0,3,11.84,3.34,3.34,0,0,1-3,4.82m-21.64-6.67h16.62a30.25,30.25,0,0,1-1.64-10V116a30.25,30.25,0,0,1,1.64-10H97.69a30.25,30.25,0,0,1,1.64,10v26.67a30.25,30.25,0,0,1-1.64,10"/><path d="M119.33,206H92.67a3.33,3.33,0,0,1-3-4.82,25,25,0,0,0,3-11.84v-20a25,25,0,0,0-3-11.84,3.33,3.33,0,0,1,3-4.82h26.67a3.34,3.34,0,0,1,3,4.82,25,25,0,0,0-3,11.84v20a25,25,0,0,0,3,11.84,3.34,3.34,0,0,1-3,4.82m-21.64-6.67h16.62a30.25,30.25,0,0,1-1.64-10v-20a30.25,30.25,0,0,1,1.64-10H97.69a30.25,30.25,0,0,1,1.64,10v20a30.25,30.25,0,0,1-1.64,10"/><path d="M186,206H159.33a3.33,3.33,0,0,1-3-4.82,25,25,0,0,0,3-11.84V176a25,25,0,0,0-3-11.84,3.34,3.34,0,0,1,3-4.82H186a3.34,3.34,0,0,1,3,4.82A25,25,0,0,0,186,176v13.33a25,25,0,0,0,3,11.84,3.33,3.33,0,0,1-3,4.82m-21.64-6.67H181a30.26,30.26,0,0,1-1.64-10V176A30.26,30.26,0,0,1,181,166H164.36A30.25,30.25,0,0,1,166,176v13.33a30.25,30.25,0,0,1-1.64,10"/><path d="M119.33,106H92.67a3.33,3.33,0,0,1-3-4.82,25,25,0,0,0,3-11.84v-20a25,25,0,0,0-3-11.84,3.33,3.33,0,0,1,3-4.82h26.67a3.34,3.34,0,0,1,3,4.82,25,25,0,0,0-3,11.84v20a25,25,0,0,0,3,11.84,3.34,3.34,0,0,1-3,4.82M97.69,99.33h16.62a30.25,30.25,0,0,1-1.64-10v-20a30.25,30.25,0,0,1,1.64-10H97.69a30.25,30.25,0,0,1,1.64,10v20a30.25,30.25,0,0,1-1.64,10"/><path d="M119.33,59.33H92.67a3.33,3.33,0,0,1-3-4.82,25,25,0,0,0,3-11.84v-20a25,25,0,0,0-3-11.84,3.33,3.33,0,0,1,3-4.82h26.67a3.34,3.34,0,0,1,3,4.82,25,25,0,0,0-3,11.84v20a25,25,0,0,0,3,11.84,3.34,3.34,0,0,1-3,4.82M97.69,52.67h16.62a30.25,30.25,0,0,1-1.64-10v-20a30.25,30.25,0,0,1,1.64-10H97.69a30.25,30.25,0,0,1,1.64,10v20a30.25,30.25,0,0,1-1.64,10"/><path d="M29.33,56H26.92A20.94,20.94,0,0,1,6,35.08V32.67a3.33,3.33,0,0,1,3.33-3.33h2.42A20.94,20.94,0,0,1,32.67,50.25v2.42A3.33,3.33,0,0,1,29.33,56M12.7,36A14.27,14.27,0,0,0,26,49.3,14.27,14.27,0,0,0,12.7,36"/><path d="M51.75,109.33H49.33A3.33,3.33,0,0,1,46,106v-2.42A20.94,20.94,0,0,1,66.92,82.67h2.42A3.33,3.33,0,0,1,72.67,86v2.41a20.94,20.94,0,0,1-20.92,20.92M66,89.36A14.27,14.27,0,0,0,52.7,102.63,14.27,14.27,0,0,0,66,89.36"/><path d="M51.75,176H49.33A3.33,3.33,0,0,1,46,172.67v-2.42a20.94,20.94,0,0,1,20.92-20.92h2.42a3.33,3.33,0,0,1,3.33,3.33v2.41A20.94,20.94,0,0,1,51.75,176M66,156A14.27,14.27,0,0,0,52.7,169.3,14.27,14.27,0,0,0,66,156"/><path d="M186,166H159.33a3.33,3.33,0,0,1-3-4.82,25,25,0,0,0,3-11.84V102.67a25,25,0,0,0-3-11.84,3.33,3.33,0,0,1,3-4.82H186a3.33,3.33,0,0,1,3,4.82,25,25,0,0,0-3,11.84v46.67a25,25,0,0,0,3,11.84,3.33,3.33,0,0,1-3,4.82m-21.64-6.67H181a30.26,30.26,0,0,1-1.64-10V102.67a30.26,30.26,0,0,1,1.64-10H164.36a30.24,30.24,0,0,1,1.64,10v46.67a30.25,30.25,0,0,1-1.64,10"/><path d="M186,92.67H159.33a3.34,3.34,0,0,1-3-4.82,25,25,0,0,0,3-11.84V59.33a25,25,0,0,0-3-11.84,3.33,3.33,0,0,1,3-4.82H186a3.33,3.33,0,0,1,3,4.82,25,25,0,0,0-3,11.84V76a25,25,0,0,0,3,11.84,3.34,3.34,0,0,1-3,4.82M164.36,86H181a30.26,30.26,0,0,1-1.64-10V59.33a30.26,30.26,0,0,1,1.64-10H164.36a30.25,30.25,0,0,1,1.64,10V76a30.25,30.25,0,0,1-1.64,10"/><path d="M186,49.33H159.33a3.33,3.33,0,0,1-3-4.82,25,25,0,0,0,3-11.84v-10a25,25,0,0,0-3-11.84,3.33,3.33,0,0,1,3-4.82H186a3.33,3.33,0,0,1,3,4.82,25,25,0,0,0-3,11.84v10a25,25,0,0,0,3,11.84,3.33,3.33,0,0,1-3,4.82m-21.64-6.67H181a30.26,30.26,0,0,1-1.64-10v-10a30.26,30.26,0,0,1,1.64-10H164.36a30.25,30.25,0,0,1,1.64,10v10a30.25,30.25,0,0,1-1.64,10"/><path d="M118.41,149.33H116a3.33,3.33,0,0,1-3.33-3.33v-2.42a20.94,20.94,0,0,1,20.92-20.92H136a3.33,3.33,0,0,1,3.33,3.33v2.41a20.94,20.94,0,0,1-20.92,20.92m14.22-20a14.27,14.27,0,0,0-13.27,13.27,14.27,14.27,0,0,0,13.27-13.27"/><path d="M162.67,126h-2.41a20.94,20.94,0,0,1-20.92-20.92v-2.41a3.33,3.33,0,0,1,3.33-3.33h2.42A20.94,20.94,0,0,1,166,120.25v2.42a3.33,3.33,0,0,1-3.33,3.33M146,106A14.27,14.27,0,0,0,159.3,119.3,14.27,14.27,0,0,0,146,106"/><path d="M185.08,146h-2.41a3.33,3.33,0,0,1-3.33-3.33v-2.42a20.94,20.94,0,0,1,20.92-20.92h2.42a3.33,3.33,0,0,1,3.33,3.33v2.41A20.94,20.94,0,0,1,185.08,146m14.22-20A14.27,14.27,0,0,0,186,139.3,14.27,14.27,0,0,0,199.3,126"/><path d="M118.41,42.67H116a3.33,3.33,0,0,1-3.33-3.33V36.92A20.94,20.94,0,0,1,133.58,16H136a3.33,3.33,0,0,1,3.33,3.33v2.41a20.94,20.94,0,0,1-20.92,20.92m14.22-20A14.27,14.27,0,0,0,119.37,36,14.27,14.27,0,0,0,132.63,22.7"/><path d="M96,89.33H93.59A20.94,20.94,0,0,1,72.67,68.41V66A3.33,3.33,0,0,1,76,62.67h2.42A20.94,20.94,0,0,1,99.33,83.58V86A3.33,3.33,0,0,1,96,89.33m-16.63-20A14.27,14.27,0,0,0,92.63,82.63,14.27,14.27,0,0,0,79.37,69.36"/><path d="M185.08,79.33h-2.41A3.33,3.33,0,0,1,179.33,76V73.58a20.94,20.94,0,0,1,20.92-20.92h2.42A3.33,3.33,0,0,1,206,56v2.41a20.94,20.94,0,0,1-20.92,20.92m14.22-20A14.27,14.27,0,0,0,186,72.63,14.27,14.27,0,0,0,199.3,59.36"/></g><path class="cls-3" d="M46.67,200H20a3.34,3.34,0,0,1-3-4.82,25,25,0,0,0,3-11.84v-40a25,25,0,0,0-3-11.84,3.33,3.33,0,0,1,3-4.82H46.67a3.33,3.33,0,0,1,3,4.82,25,25,0,0,0-3,11.84v40a25,25,0,0,0,3,11.84,3.33,3.33,0,0,1-3,4.82M25,193.33H41.64a30.25,30.25,0,0,1-1.64-10v-40a30.25,30.25,0,0,1,1.64-10H25a30.25,30.25,0,0,1,1.64,10v40a30.25,30.25,0,0,1-1.64,10"/><path class="cls-3" d="M46.67,133.33H20a3.33,3.33,0,0,1-3-4.82,25,25,0,0,0,3-11.84V80a25,25,0,0,0-3-11.84,3.34,3.34,0,0,1,3-4.82H46.67a3.34,3.34,0,0,1,3,4.82,25,25,0,0,0-3,11.84v36.67a25,25,0,0,0,3,11.84,3.33,3.33,0,0,1-3,4.82M25,126.67H41.64a30.25,30.25,0,0,1-1.64-10V80a30.25,30.25,0,0,1,1.64-10H25a30.25,30.25,0,0,1,1.64,10v36.67a30.25,30.25,0,0,1-1.64,10"/><path class="cls-3" d="M46.67,70H20a3.34,3.34,0,0,1-3-4.82,25,25,0,0,0,3-11.84V16.67A25,25,0,0,0,17,4.82,3.34,3.34,0,0,1,20,0H46.67a3.33,3.33,0,0,1,3,4.82,25,25,0,0,0-3,11.84V53.33a25,25,0,0,0,3,11.84,3.33,3.33,0,0,1-3,4.82M25,63.33H41.64a30.25,30.25,0,0,1-1.64-10V16.67a30.25,30.25,0,0,1,1.64-10H25a30.25,30.25,0,0,1,1.64,10V53.33a30.25,30.25,0,0,1-1.64,10"/><path class="cls-3" d="M113.33,153.33H86.67a3.33,3.33,0,0,1-3-4.82,25,25,0,0,0,3-11.84V110a25,25,0,0,0-3-11.84,3.34,3.34,0,0,1,3-4.82h26.67a3.34,3.34,0,0,1,3,4.82,25,25,0,0,0-3,11.84v26.67a25,25,0,0,0,3,11.84,3.34,3.34,0,0,1-3,4.82m-21.64-6.67h16.62a30.25,30.25,0,0,1-1.64-10V110a30.25,30.25,0,0,1,1.64-10H91.69a30.25,30.25,0,0,1,1.64,10v26.67a30.25,30.25,0,0,1-1.64,10"/><path class="cls-3" d="M113.33,200H86.67a3.33,3.33,0,0,1-3-4.82,25,25,0,0,0,3-11.84v-20a25,25,0,0,0-3-11.84,3.33,3.33,0,0,1,3-4.82h26.67a3.34,3.34,0,0,1,3,4.82,25,25,0,0,0-3,11.84v20a25,25,0,0,0,3,11.84,3.34,3.34,0,0,1-3,4.82m-21.64-6.67h16.62a30.25,30.25,0,0,1-1.64-10v-20a30.25,30.25,0,0,1,1.64-10H91.69a30.25,30.25,0,0,1,1.64,10v20a30.25,30.25,0,0,1-1.64,10"/><path class="cls-3" d="M180,200H153.33a3.33,3.33,0,0,1-3-4.82,25,25,0,0,0,3-11.84V170a25,25,0,0,0-3-11.84,3.34,3.34,0,0,1,3-4.82H180a3.34,3.34,0,0,1,3,4.82A25,25,0,0,0,180,170v13.33a25,25,0,0,0,3,11.84,3.33,3.33,0,0,1-3,4.82m-21.64-6.67H175a30.26,30.26,0,0,1-1.64-10V170A30.26,30.26,0,0,1,175,160H158.36A30.25,30.25,0,0,1,160,170v13.33a30.25,30.25,0,0,1-1.64,10"/><path class="cls-3" d="M113.33,100H86.67a3.33,3.33,0,0,1-3-4.82,25,25,0,0,0,3-11.84v-20a25,25,0,0,0-3-11.84,3.33,3.33,0,0,1,3-4.82h26.67a3.34,3.34,0,0,1,3,4.82,25,25,0,0,0-3,11.84v20a25,25,0,0,0,3,11.84,3.34,3.34,0,0,1-3,4.82M91.69,93.33h16.62a30.25,30.25,0,0,1-1.64-10v-20a30.25,30.25,0,0,1,1.64-10H91.69a30.25,30.25,0,0,1,1.64,10v20a30.25,30.25,0,0,1-1.64,10"/><path class="cls-3" d="M113.33,53.33H86.67a3.33,3.33,0,0,1-3-4.82,25,25,0,0,0,3-11.84v-20a25,25,0,0,0-3-11.84,3.33,3.33,0,0,1,3-4.82h26.67a3.34,3.34,0,0,1,3,4.82,25,25,0,0,0-3,11.84v20a25,25,0,0,0,3,11.84,3.34,3.34,0,0,1-3,4.82M91.69,46.67h16.62a30.25,30.25,0,0,1-1.64-10v-20a30.25,30.25,0,0,1,1.64-10H91.69a30.25,30.25,0,0,1,1.64,10v20a30.25,30.25,0,0,1-1.64,10"/><path class="cls-3" d="M23.33,50H20.92A20.94,20.94,0,0,1,0,29.08V26.67a3.33,3.33,0,0,1,3.33-3.33H5.75A20.94,20.94,0,0,1,26.67,44.25v2.42A3.33,3.33,0,0,1,23.33,50M6.7,30A14.27,14.27,0,0,0,20,43.3,14.27,14.27,0,0,0,6.7,30"/><path class="cls-3" d="M45.75,103.33H43.33A3.33,3.33,0,0,1,40,100V97.58A20.94,20.94,0,0,1,60.92,76.67h2.42A3.33,3.33,0,0,1,66.67,80v2.41a20.94,20.94,0,0,1-20.92,20.92M60,83.36A14.27,14.27,0,0,0,46.7,96.63,14.27,14.27,0,0,0,60,83.36"/><path class="cls-3" d="M45.75,170H43.33A3.33,3.33,0,0,1,40,166.67v-2.42a20.94,20.94,0,0,1,20.92-20.92h2.42a3.33,3.33,0,0,1,3.33,3.33v2.41A20.94,20.94,0,0,1,45.75,170M60,150A14.27,14.27,0,0,0,46.7,163.3,14.27,14.27,0,0,0,60,150"/><path class="cls-3" d="M180,160H153.33a3.33,3.33,0,0,1-3-4.82,25,25,0,0,0,3-11.84V96.67a25,25,0,0,0-3-11.84,3.33,3.33,0,0,1,3-4.82H180a3.33,3.33,0,0,1,3,4.82,25,25,0,0,0-3,11.84v46.67a25,25,0,0,0,3,11.84,3.33,3.33,0,0,1-3,4.82m-21.64-6.67H175a30.26,30.26,0,0,1-1.64-10V96.67a30.26,30.26,0,0,1,1.64-10H158.36a30.24,30.24,0,0,1,1.64,10v46.67a30.25,30.25,0,0,1-1.64,10"/><path class="cls-3" d="M180,86.67H153.33a3.34,3.34,0,0,1-3-4.82,25,25,0,0,0,3-11.84V53.33a25,25,0,0,0-3-11.84,3.33,3.33,0,0,1,3-4.82H180a3.33,3.33,0,0,1,3,4.82,25,25,0,0,0-3,11.84V70a25,25,0,0,0,3,11.84,3.34,3.34,0,0,1-3,4.82M158.36,80H175a30.26,30.26,0,0,1-1.64-10V53.33a30.26,30.26,0,0,1,1.64-10H158.36a30.25,30.25,0,0,1,1.64,10V70a30.25,30.25,0,0,1-1.64,10"/><path class="cls-3" d="M180,43.33H153.33a3.33,3.33,0,0,1-3-4.82,25,25,0,0,0,3-11.84v-10a25,25,0,0,0-3-11.84,3.33,3.33,0,0,1,3-4.82H180a3.33,3.33,0,0,1,3,4.82,25,25,0,0,0-3,11.84v10a25,25,0,0,0,3,11.84,3.33,3.33,0,0,1-3,4.82m-21.64-6.67H175a30.26,30.26,0,0,1-1.64-10v-10a30.26,30.26,0,0,1,1.64-10H158.36a30.25,30.25,0,0,1,1.64,10v10a30.25,30.25,0,0,1-1.64,10"/><path class="cls-3" d="M112.41,143.33H110a3.33,3.33,0,0,1-3.33-3.33v-2.42a20.94,20.94,0,0,1,20.92-20.92H130a3.33,3.33,0,0,1,3.33,3.33v2.41a20.94,20.94,0,0,1-20.92,20.92m14.22-20a14.27,14.27,0,0,0-13.27,13.27,14.27,14.27,0,0,0,13.27-13.27"/><path class="cls-3" d="M156.67,120h-2.41a20.94,20.94,0,0,1-20.92-20.92V96.67a3.33,3.33,0,0,1,3.33-3.33h2.42A20.94,20.94,0,0,1,160,114.25v2.42a3.33,3.33,0,0,1-3.33,3.33M140,100A14.27,14.27,0,0,0,153.3,113.3,14.27,14.27,0,0,0,140,100"/><path class="cls-3" d="M179.08,140h-2.41a3.33,3.33,0,0,1-3.33-3.33v-2.42a20.94,20.94,0,0,1,20.92-20.92h2.42a3.33,3.33,0,0,1,3.33,3.33v2.41A20.94,20.94,0,0,1,179.08,140m14.22-20A14.27,14.27,0,0,0,180,133.3,14.27,14.27,0,0,0,193.3,120"/><path class="cls-3" d="M112.41,36.67H110a3.33,3.33,0,0,1-3.33-3.33V30.92A20.94,20.94,0,0,1,127.58,10H130a3.33,3.33,0,0,1,3.33,3.33v2.41a20.94,20.94,0,0,1-20.92,20.92m14.22-20A14.27,14.27,0,0,0,113.37,30,14.27,14.27,0,0,0,126.63,16.7"/><path class="cls-3" d="M90,83.33H87.59A20.94,20.94,0,0,1,66.67,62.41V60A3.33,3.33,0,0,1,70,56.67h2.42A20.94,20.94,0,0,1,93.33,77.58V80A3.33,3.33,0,0,1,90,83.33m-16.63-20A14.27,14.27,0,0,0,86.63,76.63,14.27,14.27,0,0,0,73.37,63.36"/><path class="cls-3" d="M179.08,73.33h-2.41A3.33,3.33,0,0,1,173.33,70V67.58a20.94,20.94,0,0,1,20.92-20.92h2.42A3.33,3.33,0,0,1,200,50v2.41a20.94,20.94,0,0,1-20.92,20.92m14.22-20A14.27,14.27,0,0,0,180,66.63,14.27,14.27,0,0,0,193.3,53.36"/></g></g></g></svg>