<svg xmlns="http://www.w3.org/2000/svg" viewBox="0 0 222.94 206"><defs><style>.cls-1{isolation:isolate;}.cls-2{opacity:0.35;mix-blend-mode:multiply;}.cls-3{fill:#fff;}</style></defs><title>icon-banano</title><g class="cls-1"><g id="Capa_2" data-name="Capa 2"><g id="Capa_1-2" data-name="Capa 1"><g class="cls-2"><path d="M34.66,105.59A118.41,118.41,0,0,1,18.93,94.21c-4.57-3.9-11.46-9.82-12.71-18.42a21.22,21.22,0,0,1,11.27-21.9c7.37-3.8,14.76-1.81,19.64-.5,18.67,5,34.35,7.17,49.34,6.83a146.31,146.31,0,0,0,50.72-10.7c1.37-.55,2.75-1.14,4.12-1.74a170,170,0,0,1-13.66,15.77,152,152,0,0,1-41,6.75c-15.75.37-32.82-2-52.19-7.19a30.83,30.83,0,0,0-7.66-1.35,10.12,10.12,0,0,0-4.74,1.08,11.28,11.28,0,0,0-5.9,11.48c.65,4.49,4.59,8.18,9.28,12.2A108,108,0,0,0,45.05,99.9c2.21,1.17,4.46,2.25,6.77,3.27-4.57.81-9.36,1.51-14.45,2.1-.81.09-1.72.19-2.71.33ZM82.8,155.68l.67-.38a112.56,112.56,0,0,1-20.62-.38,106.85,106.85,0,0,1-23.1-5.24c-5.84-2-10.86-4-13.1-7.94a11.27,11.27,0,0,1,1.27-12.86c2.69-3.05,6.68-3.72,11.64-4.29,19.92-2.28,36.65-6.35,51.18-12.46A156.1,156.1,0,0,0,137,81.62a183.5,183.5,0,0,0,20-22.3,186,186,0,0,0,3.64-19.23l.17-1.29c.17-1.2.33-2.46.55-3.79a186.12,186.12,0,0,1-31.21,39.25,145.84,145.84,0,0,1-43.27,28.55c-13.81,5.83-29.19,9.55-48.41,11.74-5,.57-12.62,1.44-18.09,7.67a21.24,21.24,0,0,0-2.44,24.51c4.31,7.54,12.9,10.52,18.57,12.48a118.2,118.2,0,0,0,25.27,5.72c2.76.32,5.55.52,8.35.63,4.21-5.09,9.41-8,12.72-9.9ZM103,205.75a117.59,117.59,0,0,0,25.51-4.56c34.9-10.33,65.57-37,82-71.49a130,130,0,0,0,12.4-54c.36-18-3.5-35.21-10.85-48.33l0-.07a22.84,22.84,0,0,0-8.18-8.15c0-.05,0-.09,0-.14l-.46-2.24A13.45,13.45,0,1,0,177,22.12l.09.41c-5.41,5.29-6.26,11.77-7,17.5l-.18,1.33a186.35,186.35,0,0,1-13.71,49.72,145.93,145.93,0,0,1-28.75,43.13c-10.32,10.6-23.41,20.29-40,29.65C83,166.33,76.33,170.08,73.72,178A21.24,21.24,0,0,0,81,201.48c4.88,3.73,10.84,4.52,16,4.52,2.16,0,4.17-.14,5.93-.25Zm90.52-187,.45,2.25a3.37,3.37,0,0,1,0,.94,5,5,0,0,0,3.18,5.14c.23.1.46.18.67.28a12.64,12.64,0,0,1,5.46,5c6.39,11.41,9.86,27.14,9.54,43.16a120.11,120.11,0,0,1-11.42,49.81c-15.25,31.9-43.59,56.64-75.81,66.18a107.58,107.58,0,0,1-23.31,4.15c-6.15.42-11.56.53-15.16-2.21a11.29,11.29,0,0,1-3.83-12.34c1.29-3.87,4.57-6,9.06-8.48,17.46-9.83,31.3-20.11,42.3-31.39A155.93,155.93,0,0,0,165.4,95.14a196.85,196.85,0,0,0,14.49-52.43l.18-1.36c.76-5.85,1.36-9.3,4.59-12.1a10.14,10.14,0,0,1,.93-.71,5.06,5.06,0,0,0,1.87-5.76,3.12,3.12,0,0,1-.13-.41l-.45-2.25a3.4,3.4,0,0,1,2.63-4,2.85,2.85,0,0,1,.64-.07,3.44,3.44,0,0,1,3.33,2.7Zm-.2,110.43c1-1.92,2-3.89,3-5.86A111.93,111.93,0,0,0,205,97a4.32,4.32,0,1,0-8.47-1.69,103.86,103.86,0,0,1-8.05,24.33c-.88,1.84-1.82,3.68-2.78,5.46a4.31,4.31,0,0,0,1.73,5.86,4.27,4.27,0,0,0,2.06.53,4.35,4.35,0,0,0,3.8-2.25ZM206.93,83q.17-2.06.27-4.16a4.32,4.32,0,1,0-8.64-.42c-.07,1.31-.14,2.59-.24,3.89a4.32,4.32,0,0,0,4,4.66h.36a4.32,4.32,0,0,0,4.3-4Zm0,0"/></g><path class="cls-3" d="M28.66,99.59A118.41,118.41,0,0,1,12.93,88.21C8.36,84.31,1.47,78.39.22,69.79a21.22,21.22,0,0,1,11.27-21.9c7.37-3.8,14.76-1.81,19.64-.5,18.67,5,34.35,7.17,49.34,6.83a146.31,146.31,0,0,0,50.72-10.7c1.37-.55,2.75-1.14,4.12-1.74a170,170,0,0,1-13.66,15.77,152,152,0,0,1-41,6.75c-15.75.37-32.82-2-52.19-7.19a30.83,30.83,0,0,0-7.66-1.35,10.12,10.12,0,0,0-4.74,1.08,11.28,11.28,0,0,0-5.9,11.48c.65,4.49,4.59,8.18,9.28,12.2A108,108,0,0,0,39.05,93.9c2.21,1.17,4.46,2.25,6.77,3.27-4.57.81-9.36,1.51-14.45,2.1-.81.09-1.72.19-2.71.33ZM76.8,149.68l.67-.38a112.56,112.56,0,0,1-20.62-.38,106.85,106.85,0,0,1-23.1-5.24c-5.84-2-10.86-4-13.1-7.94a11.27,11.27,0,0,1,1.27-12.86c2.69-3.05,6.68-3.72,11.64-4.29,19.92-2.28,36.65-6.35,51.18-12.46A156.1,156.1,0,0,0,131,75.62a183.5,183.5,0,0,0,20-22.3,186,186,0,0,0,3.64-19.23l.17-1.29c.17-1.2.33-2.46.55-3.79a186.12,186.12,0,0,1-31.21,39.25A145.84,145.84,0,0,1,80.83,96.82c-13.81,5.83-29.19,9.55-48.41,11.74-5,.57-12.62,1.44-18.09,7.67a21.24,21.24,0,0,0-2.44,24.51c4.31,7.54,12.9,10.52,18.57,12.48a118.2,118.2,0,0,0,25.27,5.72c2.76.32,5.55.52,8.35.63,4.21-5.09,9.41-8,12.72-9.9ZM97,199.75a117.59,117.59,0,0,0,25.51-4.56c34.9-10.33,65.57-37,82-71.49a130,130,0,0,0,12.4-54c.36-18-3.5-35.21-10.85-48.33l0-.07a22.84,22.84,0,0,0-8.18-8.15c0-.05,0-.09,0-.14l-.46-2.24A13.45,13.45,0,1,0,171,16.12l.09.41c-5.41,5.29-6.26,11.77-7,17.5l-.18,1.33a186.35,186.35,0,0,1-13.71,49.72,145.93,145.93,0,0,1-28.75,43.13c-10.32,10.6-23.41,20.29-40,29.65C77,160.33,70.33,164.08,67.72,172A21.24,21.24,0,0,0,75,195.48c4.88,3.73,10.84,4.52,16,4.52,2.16,0,4.17-.14,5.93-.25Zm90.52-187,.45,2.25a3.37,3.37,0,0,1,0,.94,5,5,0,0,0,3.18,5.14c.23.1.46.18.67.28a12.64,12.64,0,0,1,5.46,5c6.39,11.41,9.86,27.14,9.54,43.16a120.11,120.11,0,0,1-11.42,49.81c-15.25,31.9-43.59,56.64-75.81,66.18a107.58,107.58,0,0,1-23.31,4.15c-6.15.42-11.56.53-15.16-2.21a11.29,11.29,0,0,1-3.83-12.34c1.29-3.87,4.57-6,9.06-8.48,17.46-9.83,31.3-20.11,42.3-31.39A155.93,155.93,0,0,0,159.4,89.14a196.85,196.85,0,0,0,14.49-52.43l.18-1.36c.76-5.85,1.36-9.3,4.59-12.1a10.14,10.14,0,0,1,.93-.71,5.06,5.06,0,0,0,1.87-5.76,3.12,3.12,0,0,1-.13-.41l-.45-2.25a3.4,3.4,0,0,1,2.63-4,2.85,2.85,0,0,1,.64-.07,3.44,3.44,0,0,1,3.33,2.7Zm-.2,110.43c1-1.92,2-3.89,3-5.86A111.93,111.93,0,0,0,199,91a4.32,4.32,0,1,0-8.47-1.69,103.86,103.86,0,0,1-8.05,24.33c-.88,1.84-1.82,3.68-2.78,5.46a4.31,4.31,0,0,0,1.73,5.86,4.27,4.27,0,0,0,2.06.53,4.35,4.35,0,0,0,3.8-2.25ZM200.93,77q.17-2.06.27-4.16a4.32,4.32,0,1,0-8.64-.42c-.07,1.31-.14,2.59-.24,3.89a4.32,4.32,0,0,0,4,4.66h.36a4.32,4.32,0,0,0,4.3-4Zm0,0"/></g></g></g></svg>