<svg xmlns="http://www.w3.org/2000/svg" viewBox="0 0 173.64 206"><defs><style>.cls-1{isolation:isolate;}.cls-2{opacity:0.35;mix-blend-mode:multiply;}.cls-3{fill:#fff;}</style></defs><title>icon-rosa</title><g class="cls-1"><g id="Capa_2" data-name="Capa 2"><g id="Capa_1-2" data-name="Capa 1"><g class="cls-2"><path d="M157.91,101.45c-2.47-1.06-6.26-2.74-11-5.09q1.56-5.29,2.62-10.34,4.81,1.84,10.11,3.4c-.61,5.29-1.24,9.39-1.69,12Zm-47.7-27.79a28.58,28.58,0,0,1-.18-27c.46,10.16,7.56,20.75,19.49,29.07a2.93,2.93,0,0,0,3.35-4.81c-10.44-7.28-16.64-16.24-17-24.57-.18-4.22,1.2-7.81,3.88-10.14a50.79,50.79,0,0,0,9.66.91,56.61,56.61,0,0,0,18-3,28.24,28.24,0,0,1,13,12.2c5.91,10.84,7.1,31,7.34,39.23a125.26,125.26,0,0,1-22.9-7.85A2.93,2.93,0,1,0,142.34,83l1.63.74a134.5,134.5,0,0,1-4.76,17.33c-6.82-4.67-23.08-16.56-29-27.41ZM97.88,54.9c-.66-6.16-.2-18.49,12.56-24.24q1.17,1.64,2.21,3.39a34.33,34.33,0,0,0-10.74,17.51c-.11.45-.21.9-.31,1.35a39.72,39.72,0,0,1-3.73,2ZM141,24.32a40,40,0,0,1,8.82,2.61,50.14,50.14,0,0,1-29.51,3.36c5.44-5.34,12.38-7.34,20.69-6ZM51.83,49.61a9.14,9.14,0,0,1,8.68,6.28c2.42,7.39-.47,17.36-2.27,22.36-4.42-3-12.65-9.28-15.07-16.67h0a9.14,9.14,0,0,1,2.1-9.18,27.41,27.41,0,0,1,4.54,9.45,2.93,2.93,0,1,0,5.65-1.55,34.09,34.09,0,0,0-4.92-10.59,9.07,9.07,0,0,1,1.29-.1ZM36.35,147.73a11.87,11.87,0,0,1-.41,9.13c-4.34,9.28-16.35,16.1-22,18.9-1.49-6.15-4-19.74.37-29a11.94,11.94,0,0,1,9-6.75c.87,5,1.44,9.71-1.74,15.2a2.93,2.93,0,1,0,5.07,2.94c3.8-6.55,3.54-12.32,2.73-17.49.27.1.54.21.8.34a11.87,11.87,0,0,1,6.17,6.75ZM165.52,43.5a34.55,34.55,0,0,0-11.18-12.19c1.15-.54,2.3-1.13,3.47-1.76a2.93,2.93,0,0,0,.17-5,47.13,47.13,0,0,0-15.85-5.94c-10.79-1.84-20,1.13-27,8.6A50.2,50.2,0,0,0,94.6,10.36C83.46,5.43,70.41,4.66,56.86,8.15A44.94,44.94,0,0,0,24.35,39.09c-1.91,6.27-3.31,15.6-1.13,27.68a11.16,11.16,0,0,0-4-.16,2.93,2.93,0,1,0,.86,5.8,4.72,4.72,0,0,1,5.28,3.11c3.3,11.05,9.55,24,20.47,38.52a23.08,23.08,0,0,0-10.44-.53,15.83,15.83,0,0,0-12,10.67,21.53,21.53,0,0,0-.93,10.05A17.8,17.8,0,0,0,9,144.27c-6.71,14.35-.07,35.61.22,36.5a2.93,2.93,0,0,0,3.9,1.82c.87-.36,21.44-8.9,28.14-23.25A17.8,17.8,0,0,0,28.3,134.29a16.6,16.6,0,0,1,.53-8.15,9.92,9.92,0,0,1,7.68-6.9c6.26-1.26,14.7,2.08,20.08,7.95,15.56,17.5,23.57,37.2,27.55,50.65a124.61,124.61,0,0,1,5,25.38A2.93,2.93,0,0,0,92,206h.16A2.93,2.93,0,0,0,95,202.91a127.57,127.57,0,0,0-5.16-26.55,145.85,145.85,0,0,0-17.23-37.77l-.09-.2c-.54-1.1-2.08-4.87.93-7.1a2.93,2.93,0,1,0-3.49-4.71,10.24,10.24,0,0,0-3.15,3.77q-2.73-3.57-5.83-7.07c-14.4-16.19-24.24-32-29.26-47.06a64.93,64.93,0,0,1-3.51-26.15c1.76-3,4.31-4.39,7.39-4a12.1,12.1,0,0,1,5.5,2.28A15,15,0,0,0,37.6,63.41h0c4.07,12.4,20,21.38,20.64,21.76a2.93,2.93,0,0,0,4.09-1.34c.32-.7,7.82-17.35,3.75-29.75A15,15,0,0,0,47.17,44.5c-.33.11-.65.23-1,.36a18.5,18.5,0,0,0-10-4.66,12.89,12.89,0,0,0-6.34.82L30,40.8a39.19,39.19,0,0,1,28.37-27q2.44-.63,4.82-1.06h0a3,3,0,0,1,2.34.62,3.54,3.54,0,0,1,1,2.64,2.93,2.93,0,0,0,2.93,2.89h0a2.93,2.93,0,0,0,2.89-3,10.25,10.25,0,0,0-.87-4.09,46.66,46.66,0,0,1,20.77,3.86A44,44,0,0,1,106.63,26,26.11,26.11,0,0,0,92.3,45.9,37.33,37.33,0,0,0,92.84,60a2.93,2.93,0,0,0,4.23,1.82c.91-.5,1.9-1,2.93-1.48l.86-.42a34.33,34.33,0,0,0,4.2,16.51c8.25,15.13,33,30.94,34.08,31.6a2.93,2.93,0,0,0,4-.91,3,3,0,0,0,.27-.55h0c.57-1.55,1.1-3.08,1.62-4.61,8.6,4.19,13.77,6.18,14,6.27a2.93,2.93,0,0,0,3.91-2.13c.05-.25,1.19-5.67,2.32-15.17q2.34.59,4.75,1.13h0a2.93,2.93,0,0,0,.61.07h0a2.93,2.93,0,0,0,2.93-2.91c0-1.24.14-30.63-8.11-45.76Z"/></g><path class="cls-3" d="M151.91,95.45c-2.47-1.06-6.26-2.74-11-5.09q1.56-5.29,2.62-10.34,4.81,1.84,10.11,3.4c-.61,5.29-1.24,9.39-1.69,12Zm-47.7-27.79a28.58,28.58,0,0,1-.18-27c.46,10.16,7.56,20.75,19.49,29.07a2.93,2.93,0,0,0,3.35-4.81c-10.44-7.28-16.64-16.24-17-24.57-.18-4.22,1.2-7.81,3.88-10.14a50.79,50.79,0,0,0,9.66.91,56.61,56.61,0,0,0,18-3,28.24,28.24,0,0,1,13,12.2c5.91,10.84,7.1,31,7.34,39.23a125.26,125.26,0,0,1-22.9-7.85A2.93,2.93,0,1,0,136.34,77l1.63.74a134.5,134.5,0,0,1-4.76,17.33c-6.82-4.67-23.08-16.56-29-27.41ZM91.88,48.9c-.66-6.16-.2-18.49,12.56-24.24q1.17,1.64,2.21,3.39A34.33,34.33,0,0,0,95.91,45.56c-.11.45-.21.9-.31,1.35a39.72,39.72,0,0,1-3.73,2ZM135,18.32a40,40,0,0,1,8.82,2.61,50.14,50.14,0,0,1-29.51,3.36c5.44-5.34,12.38-7.34,20.69-6ZM45.83,43.61a9.14,9.14,0,0,1,8.68,6.28c2.42,7.39-.47,17.36-2.27,22.36-4.42-3-12.65-9.28-15.07-16.67h0a9.14,9.14,0,0,1,2.1-9.18,27.41,27.41,0,0,1,4.54,9.45,2.93,2.93,0,1,0,5.65-1.55,34.09,34.09,0,0,0-4.92-10.59,9.07,9.07,0,0,1,1.29-.1ZM30.35,141.73a11.87,11.87,0,0,1-.41,9.13c-4.34,9.28-16.35,16.1-22,18.9-1.49-6.15-4-19.74.37-29a11.94,11.94,0,0,1,9-6.75c.87,5,1.44,9.71-1.74,15.2a2.93,2.93,0,1,0,5.07,2.94c3.8-6.55,3.54-12.32,2.73-17.49.27.1.54.21.8.34a11.87,11.87,0,0,1,6.17,6.75ZM159.52,37.5a34.55,34.55,0,0,0-11.18-12.19c1.15-.54,2.3-1.13,3.47-1.76a2.93,2.93,0,0,0,.17-5,47.13,47.13,0,0,0-15.85-5.94c-10.79-1.84-20,1.13-27,8.6A50.2,50.2,0,0,0,88.6,4.36C77.46-.57,64.41-1.34,50.86,2.15A44.94,44.94,0,0,0,18.35,33.09c-1.91,6.27-3.31,15.6-1.13,27.68a11.16,11.16,0,0,0-4-.16,2.93,2.93,0,1,0,.86,5.8,4.72,4.72,0,0,1,5.28,3.11c3.3,11.05,9.55,24,20.47,38.52a23.08,23.08,0,0,0-10.44-.53,15.83,15.83,0,0,0-12,10.67,21.53,21.53,0,0,0-.93,10.05A17.8,17.8,0,0,0,3,138.27c-6.71,14.35-.07,35.61.22,36.5a2.93,2.93,0,0,0,3.9,1.82c.87-.36,21.44-8.9,28.14-23.25A17.8,17.8,0,0,0,22.3,128.29a16.6,16.6,0,0,1,.53-8.15,9.92,9.92,0,0,1,7.68-6.9c6.26-1.26,14.7,2.08,20.08,7.95,15.56,17.5,23.57,37.2,27.55,50.65a124.61,124.61,0,0,1,5,25.38A2.93,2.93,0,0,0,86,200h.16A2.93,2.93,0,0,0,89,196.91a127.57,127.57,0,0,0-5.16-26.55,145.85,145.85,0,0,0-17.23-37.77l-.09-.2c-.54-1.1-2.08-4.87.93-7.1a2.93,2.93,0,1,0-3.49-4.71,10.24,10.24,0,0,0-3.15,3.77q-2.73-3.57-5.83-7.07c-14.4-16.19-24.24-32-29.26-47.06a64.93,64.93,0,0,1-3.51-26.15c1.76-3,4.31-4.39,7.39-4a12.1,12.1,0,0,1,5.5,2.28A15,15,0,0,0,31.6,57.41h0c4.07,12.4,20,21.38,20.64,21.76a2.93,2.93,0,0,0,4.09-1.34c.32-.7,7.82-17.35,3.75-29.75A15,15,0,0,0,41.17,38.5c-.33.11-.65.23-1,.36a18.5,18.5,0,0,0-10-4.66,12.89,12.89,0,0,0-6.34.82L24,34.8a39.19,39.19,0,0,1,28.37-27q2.44-.63,4.82-1.06h0a3,3,0,0,1,2.34.62,3.54,3.54,0,0,1,1,2.64,2.93,2.93,0,0,0,2.93,2.89h0a2.93,2.93,0,0,0,2.89-3,10.25,10.25,0,0,0-.87-4.09A46.66,46.66,0,0,1,86.23,9.72,44,44,0,0,1,100.63,20,26.11,26.11,0,0,0,86.3,39.9,37.33,37.33,0,0,0,86.84,54a2.93,2.93,0,0,0,4.23,1.82c.91-.5,1.9-1,2.93-1.48l.86-.42a34.33,34.33,0,0,0,4.2,16.51c8.25,15.13,33,30.94,34.08,31.6a2.93,2.93,0,0,0,4-.91,3,3,0,0,0,.27-.55h0c.57-1.55,1.1-3.08,1.62-4.61,8.6,4.19,13.77,6.18,14,6.27a2.93,2.93,0,0,0,3.91-2.13c.05-.25,1.19-5.67,2.32-15.17q2.34.59,4.75,1.13h0a2.93,2.93,0,0,0,.61.07h0a2.93,2.93,0,0,0,2.93-2.91c0-1.24.14-30.63-8.11-45.76Z"/></g></g></g></svg>