<svg xmlns="http://www.w3.org/2000/svg" viewBox="0 0 206.26 206"><defs><style>.cls-1{isolation:isolate;}.cls-2{opacity:0.35;mix-blend-mode:multiply;}.cls-3,.cls-4{opacity:0.7;}.cls-4,.cls-5{fill:#fff;}</style></defs><title>icon-aguacate</title><g class="cls-1"><g id="Capa_2" data-name="Capa 2"><g id="Capa_1-2" data-name="Capa 1"><g class="cls-2"><path class="cls-3" d="M70.52,177A51.67,51.67,0,0,1,18.9,125.35C18.9,113.84,22,105,30.47,92.74,41.33,77,44.71,54.38,44.71,47.93c0-17.09,10.61-29,25.81-29s25.81,11.94,25.81,29c0,6.44,3.37,29,14.24,44.81,8.43,12.26,11.57,21.1,11.57,32.61A51.67,51.67,0,0,1,70.52,177Z"/><path d="M199.69,84.77a41.42,41.42,0,0,1-12.11,25.4c-5.13,5.15-16.71,21-19.71,37.32s-6.57,27.67-15.77,36.87c-9.62,9.62-23.72,15-39.69,15.18h-.74c-13.24,0-26.08-3.72-35.53-10A64.57,64.57,0,0,0,135,125.35c0-14.26-3.88-25.45-13.85-39.93a52.69,52.69,0,0,1-4-7.07c10.59-4.72,19.77-11.62,23.39-15.23A41.44,41.44,0,0,1,165.94,51a30.83,30.83,0,0,1,33.75,33.75ZM12.45,125.35c0-13,3.44-22.81,12.71-36.27C35,74.74,38.26,53.61,38.26,47.93c0-20.56,13.57-35.48,32.26-35.48s32.26,14.92,32.26,35.48c0,5.67,3.23,26.81,13.1,41.15,9.26,13.46,12.71,23.29,12.71,36.27a58.06,58.06,0,0,1-116.13,0Zm182.92-70a37.25,37.25,0,0,0-30-10.74,47.32,47.32,0,0,0-29.44,14c-2.77,2.77-11.25,9.35-21.35,13.85-4-10.67-5.4-21.36-5.4-24.48C109.22,23.64,92.94,6,70.52,6S31.81,23.64,31.81,47.93c0,4.44-2.86,24.28-12,37.49C9.88,99.9,6,111.1,6,125.35a64.55,64.55,0,0,0,59.81,64.28c10.65,10.14,28,16.37,45.87,16.37h.8c17.67-.19,33.36-6.25,44.18-17.07,11.46-11.47,14.84-25.59,17.55-40.26s13.45-29.44,17.94-33.93a47.32,47.32,0,0,0,14-29.44,37.32,37.32,0,0,0-10.74-30Z"/><path d="M44.71,125.35a25.81,25.81,0,1,1,25.81,25.81,25.84,25.84,0,0,1-25.81-25.81Zm58.06,0a32.26,32.26,0,1,0-32.26,32.26,32.29,32.29,0,0,0,32.26-32.26Z"/><path d="M89.87,125.35H83.42a12.92,12.92,0,0,1-12.9,12.9v6.45a19.37,19.37,0,0,0,19.35-19.35Z"/></g><path class="cls-4" d="M64.52,171A51.67,51.67,0,0,1,12.9,119.35C12.9,107.84,16,99,24.47,86.74,35.33,71,38.71,48.38,38.71,41.93c0-17.09,10.61-29,25.81-29s25.81,11.94,25.81,29c0,6.44,3.37,29,14.24,44.81,8.43,12.26,11.57,21.1,11.57,32.61A51.67,51.67,0,0,1,64.52,171Z"/><path class="cls-5" d="M193.69,78.77a41.42,41.42,0,0,1-12.11,25.4c-5.13,5.15-16.71,21-19.71,37.32s-6.57,27.67-15.77,36.87c-9.62,9.62-23.72,15-39.69,15.18h-.74c-13.24,0-26.08-3.72-35.53-10A64.57,64.57,0,0,0,129,119.35c0-14.26-3.88-25.45-13.85-39.93a52.69,52.69,0,0,1-4-7.07c10.59-4.72,19.77-11.62,23.39-15.23A41.44,41.44,0,0,1,159.94,45a30.83,30.83,0,0,1,33.75,33.75ZM6.45,119.35c0-13,3.44-22.81,12.71-36.27C29,68.74,32.26,47.61,32.26,41.93c0-20.56,13.57-35.48,32.26-35.48S96.77,21.37,96.77,41.93c0,5.67,3.23,26.81,13.1,41.15,9.26,13.46,12.71,23.29,12.71,36.27a58.06,58.06,0,0,1-116.13,0Zm182.92-70a37.25,37.25,0,0,0-30-10.74,47.32,47.32,0,0,0-29.44,14c-2.77,2.77-11.25,9.35-21.35,13.85-4-10.67-5.4-21.36-5.4-24.48C103.22,17.64,86.94,0,64.52,0S25.81,17.64,25.81,41.93c0,4.44-2.86,24.28-12,37.49C3.88,93.9,0,105.1,0,119.35a64.55,64.55,0,0,0,59.81,64.28c10.65,10.14,28,16.37,45.87,16.37h.8c17.67-.19,33.36-6.25,44.18-17.07,11.46-11.47,14.84-25.59,17.55-40.26s13.45-29.44,17.94-33.93a47.32,47.32,0,0,0,14-29.44,37.32,37.32,0,0,0-10.74-30Z"/><path class="cls-5" d="M38.71,119.35a25.81,25.81,0,1,1,25.81,25.81,25.84,25.84,0,0,1-25.81-25.81Zm58.06,0a32.26,32.26,0,1,0-32.26,32.26,32.29,32.29,0,0,0,32.26-32.26Z"/><path class="cls-5" d="M83.87,119.35H77.42a12.92,12.92,0,0,1-12.9,12.9v6.45a19.37,19.37,0,0,0,19.35-19.35Z"/></g></g></g></svg>