<svg xmlns="http://www.w3.org/2000/svg" viewBox="0 0 185.62 206"><defs><style>.cls-1{isolation:isolate;}.cls-2{opacity:0.35;mix-blend-mode:multiply;}.cls-3{fill:#fff;}</style></defs><title>icon-palma</title><g class="cls-1"><g id="Capa_2" data-name="Capa 2"><g id="Capa_1-2" data-name="Capa 1"><g class="cls-2"><path d="M133,118.14l-1.7-.87c-11.75-6.11-23.45-14.81-30.3-26.38l44,21.83a2.93,2.93,0,0,0,2.61-5.25L104,85.84l1.05-.34c11.33-.91,25.86,2.34,39.6,9.17,14.33,7.12,26.09,17.27,32,27.25l-18.21-9a2.93,2.93,0,0,0-2.61,5.25l18.21,9c-11.52,1.33-26.72-1.91-41.05-9Zm-31.19,82q.7-4,1.17-7.94h1.9a162.74,162.74,0,0,0,16.37-.81c11.65-1.21,20.28-3.65,25.76-7.29.9,5.09,1.7,10.44,2.37,16ZM97.27,95.92a70.21,70.21,0,0,0,14.45,15.52,74,74,0,0,1-15.1,4c-.84-3.29-1.67-6.31-2.47-9a61.62,61.62,0,0,0,3.12-10.54ZM72.62,130.06c-10.55,12-23.38,20.79-34.55,23.95L65,123.35,91.87,92.7l0,.23q-.25,1.63-.62,3.25c-2.45,10.73-9.09,23.05-18.6,33.89ZM45.76,72.93C31.68,65.33,20.27,54.78,14.7,44.6l24.07,13a2.93,2.93,0,1,0,2.78-5.16L18.19,39.83l-.71-.38C29,38.52,44.12,42.27,58.21,49.87S83.7,68,89.27,78.19L51.89,58a2.93,2.93,0,1,0-2.78,5.16l37,20-1.06.3C73.67,84,59.26,80.21,45.76,72.93Zm85.38,86.85a3,3,0,0,0,4,1.05,37.3,37.3,0,0,0,5.64-4c1.78,6.27,3.51,13.23,5,20.84-7.71,7.51-30.62,8.85-42.22,8.72.48-5.83.63-11.63.54-17.31a84.88,84.88,0,0,0,20.5-3.65,2.93,2.93,0,1,0-1.79-5.58,79.58,79.58,0,0,1-18.9,3.37c-.32-6.78-1-13.35-1.82-19.6,6.28-1.35,21.38-5.19,29.84-12.36,2.07,5,4.49,11.49,6.92,19.27a29.42,29.42,0,0,1-6.72,5.26,2.93,2.93,0,0,0-1.05,4Zm-6.74-39.64,1.65.94,1.86,1c.46.94,1,2.09,1.61,3.44-6.07,6.34-20.36,10.54-28.25,12.27-1-6-2.09-11.53-3.27-16.61a74.47,74.47,0,0,0,19.09-5.69q3.34,2.33,7,4.47l.32.18Zm11.78-65.06c-9.72,11.87-21.63,20.81-32.33,24.63l-1.1.12,51.4-62.76c-1.28,11.53-7.83,25.62-18,38ZM185.61,128a3.12,3.12,0,0,0-.09-.63l0-.07c-4.13-13.73-18.76-28.25-38.2-37.9A95.16,95.16,0,0,0,116.83,80,95.17,95.17,0,0,0,140.72,58.8C154.47,42,161.85,22.75,160,8.54V8.47a3,3,0,0,0-3-2.47h-.07c-10.35.69-22.79,6.86-34.13,16.93a2.93,2.93,0,1,0,3.89,4.38c7.63-6.77,15.68-11.61,23-13.94L97.94,76.48c1.28-11.53,7.83-25.62,18-38,.85-1,1.75-2.09,2.68-3.14a2.93,2.93,0,0,0-4.38-3.89c-1,1.11-1.94,2.22-2.84,3.32-10,12.19-16.6,25.68-18.76,37.6C86.1,62.16,74.86,52.19,61,44.71,41.89,34.4,21.58,30.83,8,35.38a3,3,0,0,0-1.92,3.45v.07C9.74,52.76,23.88,67.78,43,78.08a95.15,95.15,0,0,0,30.14,10.5,95.16,95.16,0,0,0-24.6,20.33,106.23,106.23,0,0,0-6.64,8.39,2.93,2.93,0,1,0,4.77,3.4,100.24,100.24,0,0,1,6.28-7.93C63,101.24,75.25,92.71,86.08,89.25l1.09-.09L78.64,98.9l-45,51.25a61.47,61.47,0,0,1,6.86-19.59,2.93,2.93,0,1,0-5.17-2.75c-5.87,11-8.63,21.92-7.77,30.68a3,3,0,0,0,3,2.64c14.33-.47,32.12-10.89,46.43-27.2A100.62,100.62,0,0,0,90.37,114.7q.57,2.17,1.15,4.51a2.91,2.91,0,0,0,.1.42c1.56,6.39,3.07,13.7,4.27,21.62a2.72,2.72,0,0,0,.13.88,212.87,212.87,0,0,1,2.19,23.73,2.93,2.93,0,0,0,0,.33,3,3,0,0,0,0,.54,169.37,169.37,0,0,1-.73,22,2.91,2.91,0,0,0,0,.38s0,0,0,0c-.46,4.46-1.13,8.93-2,13.37A2.93,2.93,0,0,0,98.32,206H152.7a2.93,2.93,0,0,0,2.91-3.24c-3.9-36.31-13.66-63.27-19.47-76.76,11.3,4.81,22.66,7.33,32.56,7.33a43.25,43.25,0,0,0,15-2.41h0a3,3,0,0,0,1.89-2.89Z"/></g><path class="cls-3" d="M127,112.14l-1.7-.87c-11.75-6.11-23.45-14.81-30.3-26.38l44,21.83a2.93,2.93,0,0,0,2.61-5.25L98,79.84l1.05-.34c11.33-.91,25.86,2.34,39.6,9.17,14.33,7.12,26.09,17.27,32,27.25l-18.21-9a2.93,2.93,0,0,0-2.61,5.25l18.21,9c-11.52,1.33-26.72-1.91-41.05-9Zm-31.19,82q.7-4,1.17-7.94h1.9a162.74,162.74,0,0,0,16.37-.81c11.65-1.21,20.28-3.65,25.76-7.29.9,5.09,1.7,10.44,2.37,16ZM91.27,89.92a70.21,70.21,0,0,0,14.45,15.52,74,74,0,0,1-15.1,4c-.84-3.29-1.67-6.31-2.47-9a61.62,61.62,0,0,0,3.12-10.54ZM66.62,124.06c-10.55,12-23.38,20.79-34.55,23.95L59,117.35,85.87,86.7l0,.23q-.25,1.63-.62,3.25c-2.45,10.73-9.09,23.05-18.6,33.89ZM39.76,66.93C25.68,59.33,14.27,48.78,8.7,38.6l24.07,13a2.93,2.93,0,1,0,2.78-5.16L12.19,33.83l-.71-.38C23,32.52,38.12,36.27,52.21,43.87S77.7,62,83.27,72.19L45.89,52a2.93,2.93,0,1,0-2.78,5.16l37,20-1.06.3C67.67,78,53.26,74.21,39.76,66.93Zm85.38,86.85a3,3,0,0,0,4,1.05,37.3,37.3,0,0,0,5.64-4c1.78,6.27,3.51,13.23,5,20.84-7.71,7.51-30.62,8.85-42.22,8.72.48-5.83.63-11.63.54-17.31a84.88,84.88,0,0,0,20.5-3.65,2.93,2.93,0,1,0-1.79-5.58A79.58,79.58,0,0,1,98,157.19c-.32-6.78-1-13.35-1.82-19.6,6.28-1.35,21.38-5.19,29.84-12.36,2.07,5,4.49,11.49,6.92,19.27a29.42,29.42,0,0,1-6.72,5.26,2.93,2.93,0,0,0-1.05,4Zm-6.74-39.64,1.65.94,1.86,1c.46.94,1,2.09,1.61,3.44-6.07,6.34-20.36,10.54-28.25,12.27-1-6-2.09-11.53-3.27-16.61a74.47,74.47,0,0,0,19.09-5.69q3.34,2.33,7,4.47l.32.18Zm11.78-65.06c-9.72,11.87-21.63,20.81-32.33,24.63l-1.1.12,51.4-62.76c-1.28,11.53-7.83,25.62-18,38ZM179.61,122a3.12,3.12,0,0,0-.09-.63l0-.07c-4.13-13.73-18.76-28.25-38.2-37.9A95.16,95.16,0,0,0,110.83,74,95.17,95.17,0,0,0,134.72,52.8C148.47,36,155.85,16.75,154,2.54V2.47a3,3,0,0,0-3-2.47h-.07c-10.35.69-22.79,6.86-34.13,16.93a2.93,2.93,0,1,0,3.89,4.38c7.63-6.77,15.68-11.61,23-13.94L91.94,70.48c1.28-11.53,7.83-25.62,18-38,.85-1,1.75-2.09,2.68-3.14a2.93,2.93,0,0,0-4.38-3.89c-1,1.11-1.94,2.22-2.84,3.32C95.4,41,88.78,54.45,86.62,66.36,80.1,56.16,68.86,46.19,55,38.71,35.89,28.4,15.58,24.83,2,29.38A3,3,0,0,0,.08,32.83v.07C3.74,46.76,17.88,61.78,37,72.08a95.15,95.15,0,0,0,30.14,10.5,95.16,95.16,0,0,0-24.6,20.33,106.23,106.23,0,0,0-6.64,8.39,2.93,2.93,0,1,0,4.77,3.4,100.24,100.24,0,0,1,6.28-7.93C57,95.24,69.25,86.71,80.08,83.25l1.09-.09L72.64,92.9l-45,51.25a61.47,61.47,0,0,1,6.86-19.59,2.93,2.93,0,1,0-5.17-2.75c-5.87,11-8.63,21.92-7.77,30.68a3,3,0,0,0,3,2.64c14.33-.47,32.12-10.89,46.43-27.2A100.62,100.62,0,0,0,84.37,108.7q.57,2.17,1.15,4.51a2.91,2.91,0,0,0,.1.42c1.56,6.39,3.07,13.7,4.27,21.62a2.72,2.72,0,0,0,.13.88,212.87,212.87,0,0,1,2.19,23.73,2.93,2.93,0,0,0,0,.33,3,3,0,0,0,0,.54,169.37,169.37,0,0,1-.73,22,2.91,2.91,0,0,0,0,.38s0,0,0,0c-.46,4.46-1.13,8.93-2,13.37A2.93,2.93,0,0,0,92.32,200H146.7a2.93,2.93,0,0,0,2.91-3.24c-3.9-36.31-13.66-63.27-19.47-76.76,11.3,4.81,22.66,7.33,32.56,7.33a43.25,43.25,0,0,0,15-2.41h0a3,3,0,0,0,1.89-2.89Z"/></g></g></g></svg>