<svg xmlns="http://www.w3.org/2000/svg" viewBox="0 0 206.06 206"><defs><style>.cls-1{isolation:isolate;}.cls-2{opacity:0.35;mix-blend-mode:multiply;}.cls-3{fill:#fff;}</style></defs><title>icon-pina</title><g class="cls-1"><g id="Capa_2" data-name="Capa 2"><g id="Capa_1-2" data-name="Capa 1"><g class="cls-2"><path d="M65.82,157.73a2.75,2.75,0,0,0,.91-.16l0,0A2.76,2.76,0,1,0,65,152.35h0a2.76,2.76,0,0,0,.9,5.36Z"/><path d="M205.85,57.79a2.75,2.75,0,0,0-.6-3h0a33.85,33.85,0,0,0-22.95-9.85l-2.61-.11,1.55-2.1a58,58,0,0,0,4.92-7.86c4.31-8.38,2.58-10.11,1.84-10.85s-2.59-2.59-10.94,1.78a58,58,0,0,0-7.77,4.94l-2.1,1.57-.12-2.62a34.34,34.34,0,0,0-9.81-22.88,2.76,2.76,0,0,0-4.71,2,63,63,0,0,1-2,13.66l-.86,3.42-1.7-3.09a38.39,38.39,0,0,0-6.48-8.62,2.76,2.76,0,0,0-4.71,2c0,.25-.17,24.88-15.21,42.27l-.77.9-1-.63a48.91,48.91,0,0,0-60.3,6.95L20.3,104.86a48.83,48.83,0,0,0,0,69.05l17.81,17.81a48.88,48.88,0,0,0,69.05,0l39.28-39.28a48.87,48.87,0,0,0,7.16-60l-.61-1,.89-.77C171.27,75.6,196,75.42,196.21,75.42a2.76,2.76,0,0,0,2-4.71,38.81,38.81,0,0,0-9-6.68l-3.13-1.69,3.45-.87a63.08,63.08,0,0,1,13.76-2A2.75,2.75,0,0,0,205.85,57.79ZM63.08,69.88V85.1H47.86Zm-35,35L42.35,90.61H63.08V122h-35ZM22.6,162.39H18.11l-.41-.68a43.18,43.18,0,0,1-6.19-22.34,43.64,43.64,0,0,1,1.35-10.79l.27-1H22.6Zm0-40.35H15l1-2a43.11,43.11,0,0,1,4-6.55l2.5-3.33Zm80.83,65.62-.41.41a43.05,43.05,0,0,1-30.38,12.44c-.89,0-1.81,0-2.75-.09l-1.3-.08V178.61a2.76,2.76,0,1,0-5.51,0v20.88L61.33,199A43.25,43.25,0,0,1,42,187.82l-13.9-13.9v-6h75.32Zm0-25.27H28.11V127.55h35v16a2.76,2.76,0,1,0,5.51,0v-16h34.84Zm0-40.35H68.59V90.61h34.84Zm0-36.94H68.59v-20l.59-.41a43.58,43.58,0,0,1,33.12-7.09l1.13.22Zm63.65-42.39a19.19,19.19,0,0,0,.25-2.54l0-.58.42-.39a55.73,55.73,0,0,1,11.36-8.27l4-2.18-2.14,4A53.63,53.63,0,0,1,173,44l-.47.51-.69-.07a25,25,0,0,0-2.65-.14h-.74l-1.69.05Zm-14.79,8.77a45.32,45.32,0,0,0,.09-16.54l-.08-.42.17-.39a68.68,68.68,0,0,0,4.33-14l.89-4.53,1.75,4.28a30.78,30.78,0,0,1,2.14,13.7,37.29,37.29,0,0,1-6.8,19l-3.67,5.24Zm-26.06,10c9.58-11.3,13.5-25,15.09-34.41l.71-4.21,1.9,3.83a37.35,37.35,0,0,1,3.17,22.52,45.9,45.9,0,0,1-10.34,22.33l-1,1.16-7.15-7.15c-.7-.7-1.47-1.42-2.27-2.12l-1-.9Zm-17.28-2.15,1.92.8a43,43,0,0,1,13.87,9.31L140.35,85.1H108.94Zm0,122.78V167.9h14.24Zm31.43-31.43-11.69,11.69-.6,0H108.94V127.55h31.43Zm0-28.68H108.94V90.61h31.43Zm13.35,7.26a42.81,42.81,0,0,1-5.28,11.92l-2.55,4V127.55h8.31Zm1.51-11.38c0,.92,0,1.87-.09,2.82l-.08,1.3h-9.17V90.63l2.55,4A43.1,43.1,0,0,1,155.23,117.92Zm34.18-47.64-4.2.71c-9.47,1.59-23.14,5.51-34.45,15.11l-1,.89-.9-1c-.77-.89-1.57-1.75-2.38-2.55l-6.88-6.88,1.16-1a44.89,44.89,0,0,1,26.17-10.78,36.78,36.78,0,0,1,18.72,3.61Zm2.53-15a68.47,68.47,0,0,0-14.26,4.43l-.38.17-.41-.07a44.54,44.54,0,0,0-10.36-.54,47.94,47.94,0,0,0-6.39.84l-6.29,1.26,5.21-3.75c10.12-7.28,22.81-9.19,33.13-5l4.3,1.75Z"/></g><path class="cls-3" d="M59.82,151.73a2.75,2.75,0,0,0,.91-.16l0,0A2.76,2.76,0,1,0,59,146.35h0a2.76,2.76,0,0,0,.9,5.36Z"/><path class="cls-3" d="M199.85,51.79a2.75,2.75,0,0,0-.6-3h0a33.85,33.85,0,0,0-22.95-9.85l-2.61-.11,1.55-2.1a58,58,0,0,0,4.92-7.86c4.31-8.38,2.58-10.11,1.84-10.85s-2.59-2.59-10.94,1.78a58,58,0,0,0-7.77,4.94l-2.1,1.57-.12-2.62A34.34,34.34,0,0,0,151.28.81a2.76,2.76,0,0,0-4.71,2,63,63,0,0,1-2,13.66l-.86,3.42-1.7-3.09a38.39,38.39,0,0,0-6.48-8.62,2.76,2.76,0,0,0-4.71,2c0,.25-.17,24.88-15.21,42.27l-.77.9-1-.63a48.91,48.91,0,0,0-60.3,6.95L14.3,98.86a48.83,48.83,0,0,0,0,69.05l17.81,17.81a48.88,48.88,0,0,0,69.05,0l39.28-39.28a48.87,48.87,0,0,0,7.16-60l-.61-1,.89-.77C165.27,69.6,190,69.42,190.21,69.42a2.76,2.76,0,0,0,2-4.71,38.81,38.81,0,0,0-9-6.68l-3.13-1.69,3.45-.87a63.08,63.08,0,0,1,13.76-2A2.75,2.75,0,0,0,199.85,51.79ZM57.08,63.88V79.1H41.86Zm-35,35L36.35,84.61H57.08V116h-35ZM16.6,156.39H12.11l-.41-.68a43.18,43.18,0,0,1-6.19-22.34A43.64,43.64,0,0,1,6.86,122.6l.27-1H16.6Zm0-40.35H9l1-2a43.11,43.11,0,0,1,4-6.55l2.5-3.33Zm80.83,65.62-.41.41a43.05,43.05,0,0,1-30.38,12.44c-.89,0-1.81,0-2.75-.09l-1.3-.08V172.61a2.76,2.76,0,1,0-5.51,0v20.88L55.33,193A43.25,43.25,0,0,1,36,181.82l-13.9-13.9v-6H97.43Zm0-25.27H22.11V121.55h35v16a2.76,2.76,0,1,0,5.51,0v-16H97.43Zm0-40.35H62.59V84.61H97.43Zm0-36.94H62.59v-20l.59-.41A43.58,43.58,0,0,1,96.3,51.59l1.13.22Zm63.65-42.39a19.19,19.19,0,0,0,.25-2.54l0-.58.42-.39a55.73,55.73,0,0,1,11.36-8.27l4-2.18-2.14,4A53.63,53.63,0,0,1,167,38l-.47.51-.69-.07a25,25,0,0,0-2.65-.14h-.74l-1.69.05Zm-14.79,8.77a45.32,45.32,0,0,0,.09-16.54l-.08-.42.17-.39a68.68,68.68,0,0,0,4.33-14l.89-4.53,1.75,4.28a30.78,30.78,0,0,1,2.14,13.7,37.29,37.29,0,0,1-6.8,19l-3.67,5.24Zm-26.06,10c9.58-11.3,13.5-25,15.09-34.41l.71-4.21,1.9,3.83a37.35,37.35,0,0,1,3.17,22.52,45.9,45.9,0,0,1-10.34,22.33l-1,1.16-7.15-7.15c-.7-.7-1.47-1.42-2.27-2.12l-1-.9Zm-17.28-2.15,1.92.8a43,43,0,0,1,13.87,9.31L134.35,79.1H102.94Zm0,122.78V161.9h14.24Zm31.43-31.43-11.69,11.69-.6,0H102.94V121.55h31.43Zm0-28.68H102.94V84.61h31.43Zm13.35,7.26a42.81,42.81,0,0,1-5.28,11.92l-2.55,4V121.55h8.31Zm1.51-11.38c0,.92,0,1.87-.09,2.82l-.08,1.3h-9.17V84.63l2.55,4A43.1,43.1,0,0,1,149.23,111.92Zm34.18-47.64-4.2.71c-9.47,1.59-23.14,5.51-34.45,15.11l-1,.89-.9-1c-.77-.89-1.57-1.75-2.38-2.55l-6.88-6.88,1.16-1a44.89,44.89,0,0,1,26.17-10.78,36.78,36.78,0,0,1,18.72,3.61Zm2.53-15a68.47,68.47,0,0,0-14.26,4.43l-.38.17-.41-.07a44.54,44.54,0,0,0-10.36-.54,47.94,47.94,0,0,0-6.39.84l-6.29,1.26,5.21-3.75c10.12-7.28,22.81-9.19,33.13-5l4.3,1.75Z"/></g></g></g></svg>