<svg xmlns="http://www.w3.org/2000/svg" viewBox="0 0 162.14 206"><defs><style>.cls-1{isolation:isolate;}.cls-2{opacity:0.35;mix-blend-mode:multiply;}.cls-3{fill:#fff;}</style></defs><title>icon-papa</title><g class="cls-1"><g id="Capa_2" data-name="Capa 2"><g id="Capa_1-2" data-name="Capa 1"><g class="cls-2"><path d="M44.18,15.54A50.72,50.72,0,0,1,83,16.1h0a50.78,50.78,0,0,1-6.52,8.11,3,3,0,0,0,4.21,4.18,56.2,56.2,0,0,0,7.67-9.65,53.47,53.47,0,0,1,23.5,27.14l5.82,15c10.52,27.15,25.6,41.62,30.11,48.48-1.89,1.84-4.72,4.47-8.16,7.34a3,3,0,1,0,3.8,4.56c3-2.48,5.51-4.78,7.41-6.59a52.1,52.1,0,0,1,4.92,15.52,3,3,0,1,0,5.87-.89c-4.33-28.69-23.26-31.51-38.41-70.56l-5.83-15C105.5,13.11,71.08-1.75,42,10a3,3,0,0,0,2.2,5.51Z"/><path d="M25.55,110.74C22.33,99.32,18.32,91,15.15,82.12a67.76,67.76,0,0,0,9.48.75,3,3,0,0,0,0-5.93,59.53,59.53,0,0,1-11.38-1.19c-4.7-20.43,3.13-42.62,21-54.93A3,3,0,1,0,31,15.92C9,31,.13,59.82,10,85.35c4.83,12.79,7.19,17.67,9.82,27a3,3,0,1,0,5.71-1.61Z"/><path d="M77,198.88a61.57,61.57,0,0,1-15.41-5.13,147.16,147.16,0,0,0,25.22-6.19,3,3,0,0,0-2-5.6,147.47,147.47,0,0,1-31.46,6.89,52.37,52.37,0,0,1-22-37.47,68.91,68.91,0,0,0,12.13-2.08,3,3,0,0,0-1.5-5.74,63.22,63.22,0,0,1-11,1.9,159.55,159.55,0,0,0-2.73-22.93,3,3,0,0,0-5.83,1.14,154.19,154.19,0,0,1,2.71,23.71,58.24,58.24,0,0,0,3.92,19.72c7.53,19.42,25.07,33.44,46.74,37.63A3,3,0,1,0,77,198.88Z"/><path d="M159.36,138.64a3,3,0,0,0-3.15,2.77c-2.13,33.57-33.87,59.33-67.92,58.64h-.06a3,3,0,0,0-.05,5.93c37.35.7,71.62-27.52,73.95-64.2a3,3,0,0,0-2.77-3.15Z"/><path d="M33.52,79.47A3,3,0,0,0,36.44,82,68.19,68.19,0,0,0,52,77.78a3,3,0,1,0-2.17-5.52A68,68,0,0,1,36,76.07a3,3,0,0,0-2.45,3.41Z"/><path d="M71.81,32.1a3,3,0,0,0-4.07-1,38.15,38.15,0,0,1-7.82,3.54,3,3,0,0,0,.91,5.79,2.91,2.91,0,0,0,.91-.14,44.52,44.52,0,0,0,9-4.09,3,3,0,0,0,1-4.07Z"/><path d="M130.38,123.75a80.75,80.75,0,0,1-12.57,7.2,3,3,0,0,0,1.21,5.68,2.91,2.91,0,0,0,1.21-.26,86.47,86.47,0,0,0,13.51-7.73,3,3,0,0,0-3.36-4.89Z"/><path d="M100.8,86.44a3,3,0,0,0-4.12-.77A136,136,0,0,1,76.24,97.35,3,3,0,0,0,77.4,103a2.9,2.9,0,0,0,1.17-.24A138.19,138.19,0,0,0,100,90.57a3,3,0,0,0,.77-4.12Z"/><path d="M112.88,76.79a3,3,0,0,0-4.18-.32c-.88.76-1.79,1.51-2.71,2.25A3,3,0,0,0,107.87,84c1.34,0,1.93-.64,4.7-3a3,3,0,0,0,.32-4.18Z"/><path d="M63.52,134a75,75,0,0,1-10.71,5.81A3,3,0,0,0,54,145.48a2.92,2.92,0,0,0,1.19-.25A80.76,80.76,0,0,0,66.76,139a3,3,0,0,0-3.24-5Z"/><path d="M98.13,182.83a64,64,0,0,0,14.32-9.53,3,3,0,0,0-4-4.41,58,58,0,0,1-13,8.63,3,3,0,1,0,2.65,5.31Z"/></g><path class="cls-3" d="M38.18,9.54A50.72,50.72,0,0,1,77,10.1h0a50.78,50.78,0,0,1-6.52,8.11,3,3,0,0,0,4.21,4.18,56.2,56.2,0,0,0,7.67-9.65,53.47,53.47,0,0,1,23.5,27.14l5.82,15c10.52,27.15,25.6,41.62,30.11,48.48-1.89,1.84-4.72,4.47-8.16,7.34a3,3,0,1,0,3.8,4.56c3-2.48,5.51-4.78,7.41-6.59a52.1,52.1,0,0,1,4.92,15.52,3,3,0,1,0,5.87-.89c-4.33-28.69-23.26-31.51-38.41-70.56l-5.83-15C99.5,7.11,65.08-7.75,36,4a3,3,0,0,0,2.2,5.51Z"/><path class="cls-3" d="M19.55,104.74C16.33,93.32,12.32,85,9.15,76.12a67.76,67.76,0,0,0,9.48.75,3,3,0,0,0,0-5.93A59.53,59.53,0,0,1,7.27,69.74c-4.7-20.43,3.13-42.62,21-54.93A3,3,0,1,0,25,9.92C3,25-5.87,53.82,4,79.35c4.83,12.79,7.19,17.67,9.82,27a3,3,0,1,0,5.71-1.61Z"/><path class="cls-3" d="M71,192.88a61.57,61.57,0,0,1-15.41-5.13,147.16,147.16,0,0,0,25.22-6.19,3,3,0,0,0-2-5.6,147.47,147.47,0,0,1-31.46,6.89,52.37,52.37,0,0,1-22-37.47,68.91,68.91,0,0,0,12.13-2.08,3,3,0,0,0-1.5-5.74,63.22,63.22,0,0,1-11,1.9,159.55,159.55,0,0,0-2.73-22.93,3,3,0,0,0-5.83,1.14,154.19,154.19,0,0,1,2.71,23.71,58.24,58.24,0,0,0,3.92,19.72c7.53,19.42,25.07,33.44,46.74,37.63A3,3,0,1,0,71,192.88Z"/><path class="cls-3" d="M153.36,132.64a3,3,0,0,0-3.15,2.77c-2.13,33.57-33.87,59.33-67.92,58.64h-.06a3,3,0,0,0-.05,5.93c37.35.7,71.62-27.52,73.95-64.2a3,3,0,0,0-2.77-3.15Z"/><path class="cls-3" d="M27.52,73.47A3,3,0,0,0,30.44,76,68.19,68.19,0,0,0,46,71.78a3,3,0,1,0-2.17-5.52A68,68,0,0,1,30,70.07a3,3,0,0,0-2.45,3.41Z"/><path class="cls-3" d="M65.81,26.1a3,3,0,0,0-4.07-1,38.15,38.15,0,0,1-7.82,3.54,3,3,0,0,0,.91,5.79,2.91,2.91,0,0,0,.91-.14,44.52,44.52,0,0,0,9-4.09,3,3,0,0,0,1-4.07Z"/><path class="cls-3" d="M124.38,117.75a80.75,80.75,0,0,1-12.57,7.2,3,3,0,0,0,1.21,5.68,2.91,2.91,0,0,0,1.21-.26,86.47,86.47,0,0,0,13.51-7.73,3,3,0,0,0-3.36-4.89Z"/><path class="cls-3" d="M94.8,80.44a3,3,0,0,0-4.12-.77A136,136,0,0,1,70.24,91.35,3,3,0,0,0,71.4,97a2.9,2.9,0,0,0,1.17-.24A138.19,138.19,0,0,0,94,84.57a3,3,0,0,0,.77-4.12Z"/><path class="cls-3" d="M106.88,70.79a3,3,0,0,0-4.18-.32c-.88.76-1.79,1.51-2.71,2.25A3,3,0,0,0,101.87,78c1.34,0,1.93-.64,4.7-3a3,3,0,0,0,.32-4.18Z"/><path class="cls-3" d="M57.52,128a75,75,0,0,1-10.71,5.81A3,3,0,0,0,48,139.48a2.92,2.92,0,0,0,1.19-.25A80.76,80.76,0,0,0,60.76,133a3,3,0,0,0-3.24-5Z"/><path class="cls-3" d="M92.13,176.83a64,64,0,0,0,14.32-9.53,3,3,0,0,0-4-4.41,58,58,0,0,1-13,8.63,3,3,0,1,0,2.65,5.31Z"/></g></g></g></svg>