<svg xmlns="http://www.w3.org/2000/svg" viewBox="0 0 190 206"><defs><style>.cls-1{isolation:isolate;}.cls-2{opacity:0.35;mix-blend-mode:multiply;}.cls-3{fill:#fff;}</style></defs><title>icon-tomate</title><g class="cls-1"><g id="Capa_2" data-name="Capa 2"><g id="Capa_1-2" data-name="Capa 1"><g class="cls-2"><path d="M167.23,116.43c0,36.83-31.05,66.8-69.22,66.8a3.26,3.26,0,1,0,0,6.52c41.76,0,75.74-32.89,75.74-73.31,0-10.63-2.39-20-7.1-27.93a3.24,3.24,0,0,0-2-1.49,3.28,3.28,0,0,0-.81-.1A3.26,3.26,0,0,0,161,91.84C165.15,98.71,167.23,107,167.23,116.43Z"/><path d="M150.32,79.93a3.42,3.42,0,0,0,.57.3,3.29,3.29,0,0,0,.61.18,3.15,3.15,0,0,0,.63.06,3.26,3.26,0,0,0,2.3-1,3.1,3.1,0,0,0,.41-.5,3.28,3.28,0,0,0,.3-.56,3.48,3.48,0,0,0,.19-.61,3.22,3.22,0,0,0,.06-.63,3.15,3.15,0,0,0-.06-.63,3.24,3.24,0,0,0-.19-.61,3.2,3.2,0,0,0-.3-.57,3.11,3.11,0,0,0-.4-.49,3.25,3.25,0,0,0-3.55-.71,3.23,3.23,0,0,0-.57.3,3.09,3.09,0,0,0-.5.4,3,3,0,0,0-.39.48,3.25,3.25,0,0,0-.31.57,3.34,3.34,0,0,0-.19.62,3.2,3.2,0,0,0-.06.63,3.28,3.28,0,0,0,1.45,2.71Z"/><path d="M38.76,56.66a1.39,1.39,0,0,1-.63.89C17.11,70.44,6,90.8,6,116.43,6,165.82,47.27,206,98,206s92-40.18,92-89.57c0-14.66-3.62-27.61-10.76-38.5h0c-6.46-9.85-15.7-17.85-27.44-23.76a1.39,1.39,0,0,1-.45-.36A11.32,11.32,0,0,0,145,50.25L130,46.65a1.39,1.39,0,0,1-1-1.62L130.34,38a6.48,6.48,0,0,0-2.47-6.32c-3.82-3.19-10.79-4-16.21-1.82l-3.46,1.37a1.39,1.39,0,0,1-1.77-1.87c3.52-7.58,8-13.46,13.38-17.48a3.26,3.26,0,1,0-3.91-5.22c-8.19,6.13-14.49,15.69-18.73,28.41a1.39,1.39,0,0,1-.8.85l-.11,0a1.38,1.38,0,0,1-1,0l-15.4-6.12a18,18,0,0,0-6.58-1.21,15.3,15.3,0,0,0-9.63,3A6.48,6.48,0,0,0,61.17,38L62.59,45a1.39,1.39,0,0,1-1,1.62L46.5,50.26C42.24,51.27,39.42,53.61,38.76,56.66Zm9.44-.11L67.42,52a3.25,3.25,0,0,0,2.44-3.81L67.77,37.71a1.39,1.39,0,0,1,.7-1.49,11.93,11.93,0,0,1,9-.32l16.4,6.52a1.39,1.39,0,0,1,.84,1.6A93.24,93.24,0,0,0,92.5,58.18a3.26,3.26,0,0,0,3.07,3.44h.19A3.26,3.26,0,0,0,99,58.55a92.55,92.55,0,0,1,3.11-17.31,1.39,1.39,0,0,1,.82-.92l11.13-4.42a11.92,11.92,0,0,1,9,.32,1.39,1.39,0,0,1,.7,1.49l-2.09,10.43A3.25,3.25,0,0,0,124.09,52l19.22,4.6a1.39,1.39,0,0,1,0,2.7l-19.22,4.6a3.25,3.25,0,0,0-2.44,3.81l2.09,10.43a1.39,1.39,0,0,1-.7,1.49,11.94,11.94,0,0,1-9,.32L97,73.1a3.26,3.26,0,0,0-2.41,0L77.44,79.9a11,11,0,0,1-4,.72,11.22,11.22,0,0,1-4.94-1,1.39,1.39,0,0,1-.7-1.49l2.09-10.43a3.25,3.25,0,0,0-2.44-3.81L48.2,59.25a1.39,1.39,0,0,1,0-2.7Zm-6.11,7.16.49.3.23.13.07,0,.41.21.38.18.58.25.29.11.79.28.19.06c.37.11.68.2,1,.27l15.05,3.6a1.39,1.39,0,0,1,1,1.62l-1.41,7.05a6.32,6.32,0,0,0-.11.87,6.49,6.49,0,0,0,2.19,5.11l.39.34h0c.18.15.38.3.63.48l.14.1c.24.17.47.31.7.44l.13.07.68.35.14.07.79.34.19.07.86.3h0l.9.25.2,0,.92.19.16,0L71,87l.16,0,1,.08h.21l1,0h.06l1,0h.31l.74-.07.29,0,1-.15,1-.21.29-.07.7-.2.29-.09c.35-.11.65-.22.92-.33l15.4-6.12a1.38,1.38,0,0,1,1,0L111.67,86c5.42,2.15,12.38,1.37,16.21-1.82a6.48,6.48,0,0,0,2.47-6.32l-1.41-7.05a1.39,1.39,0,0,1,1-1.62l15-3.6h.06c.31-.07.64-.17,1-.27l.36-.12.28-.1.29-.1.62-.25.1,0,.12-.05.62-.31.16-.08.58-.34.16-.1.49-.34.19-.15.37-.3.25-.23.24-.24.12-.12.06-.06a1.39,1.39,0,0,1,1.71-.25c20.1,11.6,30.72,30.4,30.72,54.35,0,45.8-38.35,83.05-85.48,83.05s-85.48-37.26-85.48-83.05c0-22.8,9.71-41,28.07-52.73A1.39,1.39,0,0,1,42.09,63.71Z"/></g><path class="cls-3" d="M161.23,110.43c0,36.83-31.05,66.8-69.22,66.8a3.26,3.26,0,1,0,0,6.52c41.76,0,75.74-32.89,75.74-73.31,0-10.63-2.39-20-7.1-27.93a3.24,3.24,0,0,0-2-1.49,3.28,3.28,0,0,0-.81-.1A3.26,3.26,0,0,0,155,85.84C159.15,92.71,161.23,101,161.23,110.43Z"/><path class="cls-3" d="M144.32,73.93a3.42,3.42,0,0,0,.57.3,3.29,3.29,0,0,0,.61.18,3.15,3.15,0,0,0,.63.06,3.26,3.26,0,0,0,2.3-1,3.1,3.1,0,0,0,.41-.5,3.28,3.28,0,0,0,.3-.56,3.48,3.48,0,0,0,.19-.61,3.22,3.22,0,0,0,.06-.63,3.15,3.15,0,0,0-.06-.63,3.24,3.24,0,0,0-.19-.61,3.2,3.2,0,0,0-.3-.57,3.11,3.11,0,0,0-.4-.49,3.25,3.25,0,0,0-3.55-.71,3.23,3.23,0,0,0-.57.3,3.09,3.09,0,0,0-.5.4,3,3,0,0,0-.39.48,3.25,3.25,0,0,0-.31.57,3.34,3.34,0,0,0-.19.62,3.2,3.2,0,0,0-.06.63,3.28,3.28,0,0,0,1.45,2.71Z"/><path class="cls-3" d="M32.76,50.66a1.39,1.39,0,0,1-.63.89C11.11,64.44,0,84.8,0,110.43,0,159.82,41.27,200,92,200s92-40.18,92-89.57c0-14.66-3.62-27.61-10.76-38.5h0c-6.46-9.85-15.7-17.85-27.44-23.76a1.39,1.39,0,0,1-.45-.36A11.32,11.32,0,0,0,139,44.25L124,40.65a1.39,1.39,0,0,1-1-1.62L124.34,32a6.48,6.48,0,0,0-2.47-6.32c-3.82-3.19-10.79-4-16.21-1.82l-3.46,1.37a1.39,1.39,0,0,1-1.77-1.87c3.52-7.58,8-13.46,13.38-17.48A3.26,3.26,0,1,0,109.91.65c-8.19,6.13-14.49,15.69-18.73,28.41a1.39,1.39,0,0,1-.8.85l-.11,0a1.38,1.38,0,0,1-1,0l-15.4-6.12a18,18,0,0,0-6.58-1.21,15.3,15.3,0,0,0-9.63,3A6.48,6.48,0,0,0,55.17,32L56.59,39a1.39,1.39,0,0,1-1,1.62L40.5,44.26C36.24,45.27,33.42,47.61,32.76,50.66Zm9.44-.11L61.42,46a3.25,3.25,0,0,0,2.44-3.81L61.77,31.71a1.39,1.39,0,0,1,.7-1.49,11.93,11.93,0,0,1,9-.32l16.4,6.52a1.39,1.39,0,0,1,.84,1.6A93.24,93.24,0,0,0,86.5,52.18a3.26,3.26,0,0,0,3.07,3.44h.19A3.26,3.26,0,0,0,93,52.55a92.55,92.55,0,0,1,3.11-17.31,1.39,1.39,0,0,1,.82-.92l11.13-4.42a11.92,11.92,0,0,1,9,.32,1.39,1.39,0,0,1,.7,1.49l-2.09,10.43A3.25,3.25,0,0,0,118.09,46l19.22,4.6a1.39,1.39,0,0,1,0,2.7l-19.22,4.6a3.25,3.25,0,0,0-2.44,3.81l2.09,10.43a1.39,1.39,0,0,1-.7,1.49,11.94,11.94,0,0,1-9,.32L91,67.1a3.26,3.26,0,0,0-2.41,0L71.44,73.9a11,11,0,0,1-4,.72,11.22,11.22,0,0,1-4.94-1,1.39,1.39,0,0,1-.7-1.49l2.09-10.43a3.25,3.25,0,0,0-2.44-3.81L42.2,53.25a1.39,1.39,0,0,1,0-2.7Zm-6.11,7.16.49.3.23.13.07,0,.41.21.38.18.58.25.29.11.79.28.19.06c.37.11.68.2,1,.27l15.05,3.6a1.39,1.39,0,0,1,1,1.62l-1.41,7.05a6.32,6.32,0,0,0-.11.87,6.49,6.49,0,0,0,2.19,5.11l.39.34h0c.18.15.38.3.63.48l.14.1c.24.17.47.31.7.44l.13.07.68.35.14.07.79.34.19.07.86.3h0l.9.25.2,0,.92.19.16,0L65,81l.16,0,1,.08h.21l1,0h.06l1,0h.31l.74-.07.29,0,1-.15,1-.21.29-.07.7-.2.29-.09c.35-.11.65-.22.92-.33l15.4-6.12a1.38,1.38,0,0,1,1,0L105.67,80c5.42,2.15,12.38,1.37,16.21-1.82a6.48,6.48,0,0,0,2.47-6.32l-1.41-7.05a1.39,1.39,0,0,1,1-1.62l15-3.6h.06c.31-.07.64-.17,1-.27l.36-.12.28-.1.29-.1.62-.25.1,0,.12-.05.62-.31.16-.08.58-.34.16-.1.49-.34.19-.15.37-.3.25-.23.24-.24.12-.12.06-.06a1.39,1.39,0,0,1,1.71-.25c20.1,11.6,30.72,30.4,30.72,54.35,0,45.8-38.35,83.05-85.48,83.05S6.52,156.22,6.52,110.43c0-22.8,9.71-41,28.07-52.73A1.39,1.39,0,0,1,36.09,57.71Z"/></g></g></g></svg>